<svg
  xmlns="http://www.w3.org/2000/svg"
  viewBox="0 0 428.21 428.23"
  fill="currentColor"
  className="w-4 h-4"
>
  <path
    d="m199.11.54c28.78-2,57.96,1.79,85.21,11.27,39.92,13.78,75.45,39.79,100.82,73.53,26.06,34.4,41.25,76.85,42.88,119.98,1.82,42.4-9.29,85.28-31.74,121.31-18.42,29.87-44.34,55.06-74.68,72.69-33.67,19.68-72.83,29.72-111.8,28.87-42.17-.72-83.98-14.34-118.46-38.63-35.34-24.71-62.96-60.28-77.94-100.73C2.93,260.79-1.44,230.56.41,200.71c2.4-40.25,16.57-79.7,40.35-112.27,23.92-33.04,57.47-59.04,95.49-73.83,20.08-7.85,41.35-12.6,62.85-14.08m10.31,134.38c-11.41.29-22.81,1.58-33.93,4.18-10.75,2.59-21.45,6.23-30.68,12.44-5.32,3.66-10.39,8.44-12.33,14.79-1.58,5.02-.32,10.58,2.64,14.83,4.56,6.61,11.59,10.97,18.7,14.4,11.77,5.48,24.55,8.48,37.38,10.15,15.81,1.98,31.89,1.9,47.68-.29,12.31-1.78,24.56-4.78,35.82-10.17,6.56-3.22,13.01-7.28,17.45-13.21,3.14-4.13,4.8-9.59,3.52-14.71-1.51-6.29-6.25-11.18-11.32-14.89-8.71-6.23-18.93-9.97-29.23-12.67-14.9-3.79-30.35-5.19-45.71-4.85m30.29,86.45c-24.62,3.43-50.06,2.14-73.95-4.88-11.04-3.32-21.8-7.94-31.22-14.63-2.45,3.97-3.49,8.92-2.2,13.48,1.6,5.89,6.03,10.52,10.8,14.09,7.65,5.6,16.58,9.19,25.62,11.86,14.5,4.21,29.64,5.93,44.71,6.01,14.37,0,28.79-1.5,42.7-5.19,9.87-2.66,19.64-6.32,28.02-12.28,4.96-3.61,9.61-8.29,11.32-14.36,1.34-4.59.31-9.6-2.16-13.62-15.79,11.07-34.74,16.7-53.64,19.51m-107.47,33.76c1.39,5.66,5.47,10.2,9.95,13.72,7.4,5.74,16.19,9.38,25.07,12.14,12.78,3.89,26.13,5.76,39.46,6.31,15.49.57,31.09-.65,46.19-4.21,10.53-2.58,20.98-6.18,30.05-12.25,5.19-3.55,10.12-8.14,12.24-14.23,1.73-4.83.83-10.33-1.89-14.61-15.04,10.61-33.04,16.16-51.04,19.13-25.38,3.93-51.71,2.76-76.42-4.46-11.08-3.32-21.86-7.95-31.33-14.66-2.37,3.88-3.44,8.66-2.29,13.12Z"
    style={{ strokeWidth: 0 }}
  />
</svg>
