<?xml version="1.0" encoding="UTF-8" ?>
<!DOCTYPE svg PUBLIC "-//W3C//DTD SVG 1.1//EN" "http://www.w3.org/Graphics/SVG/1.1/DTD/svg11.dtd">
<svg width="1024pt" height="1024pt" viewBox="0 0 1024 1024" version="1.1" xmlns="http://www.w3.org/2000/svg">
<g id="#000000ff">
<path fill="#000000" opacity="1.00" d=" M 499.46 0.00 L 524.48 0.00 C 568.95 1.43 613.32 7.91 656.02 20.53 C 728.32 41.63 795.75 79.10 851.98 129.19 C 904.33 175.65 947.04 232.93 976.50 296.42 C 1007.22 362.21 1023.29 434.66 1024.00 507.23 L 1024.00 517.71 C 1023.34 565.13 1016.42 612.51 1002.84 657.97 C 979.43 737.20 936.22 810.40 878.50 869.47 C 826.12 923.26 761.79 965.38 691.44 991.65 C 636.31 1012.39 577.54 1023.12 518.67 1024.00 L 504.42 1024.00 C 449.69 1023.02 395.07 1013.63 343.38 995.52 C 279.96 973.47 221.04 938.63 171.00 893.87 C 113.49 842.58 67.72 778.17 38.43 706.89 C 20.02 662.28 8.06 615.02 2.94 567.04 C 1.33 552.92 0.74 538.72 0.00 524.55 L 0.00 501.44 C 1.51 438.92 13.99 376.58 37.78 318.68 C 68.72 242.60 118.46 174.32 181.15 121.28 C 241.19 70.28 313.17 33.40 389.72 14.75 C 425.62 5.81 462.51 1.28 499.46 0.00 M 502.50 256.70 C 484.76 259.22 468.52 269.76 458.64 284.64 C 451.34 295.59 447.59 308.84 448.04 321.99 C 448.45 337.13 454.47 352.09 464.83 363.18 C 475.41 374.76 490.36 382.32 506.00 383.70 C 519.46 384.98 533.36 381.92 544.92 374.86 C 558.84 366.50 569.42 352.69 573.69 337.01 C 577.21 324.28 576.67 310.46 572.12 298.06 C 566.94 283.97 556.71 271.79 543.65 264.36 C 531.32 257.25 516.55 254.61 502.50 256.70 M 502.55 448.70 C 478.70 451.97 457.76 470.03 450.85 493.06 C 446.88 504.99 448.24 517.69 448.00 530.03 C 448.00 588.05 447.99 646.07 448.01 704.09 C 447.98 719.63 453.84 735.14 464.33 746.63 C 474.03 757.49 487.52 764.93 501.92 767.20 C 517.06 769.61 533.09 766.46 546.03 758.17 C 560.14 749.32 570.60 734.79 574.32 718.53 C 576.77 708.54 575.80 698.19 576.00 688.02 C 575.98 629.00 576.03 569.98 575.98 510.96 C 575.84 490.23 564.68 470.10 547.42 458.70 C 534.41 449.90 518.06 446.38 502.55 448.70 Z" />
</g>
</svg>
