<svg xmlns="http://www.w3.org/2000/svg" id="Layer_1" version="1.1" viewBox="0 0 497 614.2" fill="currentColor">
<path d="M497.1 90.4C496.6 29.3 344.9 0 248.5 0 152.2 0 1.3 39.5 0 88.4v145.1c0 7.4 21.7 25.2 27 20.4 76.8-80.4 209.2-110.9 303.1-42.1 3.9 2.3 6.2 7.5 3.4 11.6-25.5 50.2-98.4 67.1-138.7 24.8-2.7-2.6-4.7-7.7-9.2-7-18.1 2-35.1 9.7-50.9 18.5-16.9 9.7-32.8 21.5-45.2 36.6-2.9 2.9-.5 7 2.1 9.1 38.8 35.5 89 59.2 141.8 63.2 96.5 5.8 188.8-43 256.3-109.1 25.9-33.7-102.3-130.6-135.2-137.8-2.8-.8-4.2-4.4-2.5-6.8 2-3.7 6.9-1.8 10.3-2.1 44.4 2.8 89 14.4 127.2 37.7 3 1.9 7.7-.3 7.6-4 0-18.7-.1-37.4 0-56.1z" class="st0"/><path d="M497 344.6c.2-3.2-3.3-5.3-6.2-4.5C369.3 480.6 131 483.9 9 341.9c-2.5-3.7-9.2-1.9-8.9 2.7-.2 28 0 55.9-.1 83.9-1.5 42.5 196 185.7 248.5 185.7S480.8 490.8 497 427.4c0-27.6.2-55.2 0-82.8z"/>
</svg>