<?xml version="1.0" encoding="UTF-8"?>
<svg id="Layer_1" data-name="Layer 1" xmlns="http://www.w3.org/2000/svg" viewBox="0 0 726.38 360.64">
  <g id="_65abdfff" data-name="#65abdfff">
    <path d="m284.48,50.67C319.71,16.47,369.25-2.4,418.33.25c44.84,1.85,88.54,21.47,119.91,53.54,13.31,13.46,24.42,29.08,32.94,45.98-11.93.03-23.86.01-35.79.01-13.05-20.27-31.02-37.3-51.98-49.21-27.46-15.7-60-22.26-91.4-18.39-31.84,3.73-62.24,18.21-85.34,40.43,1.24,7.57.07,15.68-4.43,22.02-6.27,9.43-18.5,14.3-29.55,11.75-12.23-2.5-21.95-13.93-22.27-26.44-.66-10.66,5.41-21.3,14.84-26.27,5.8-3.3,12.69-3.93,19.2-3Z" style="fill: #4b72f3; stroke-width: 0px;"/>
    <path d="m513.08,270.99c5.45-8.27,15.48-13.25,25.38-12.51,10.99.55,21.21,8.19,24.87,18.57,4.06,10.63.83,23.51-7.79,30.95-6.74,6.23-16.46,8.34-25.33,6.6-34.28,30.87-80.68,47.8-126.81,45.89-47.62-1.41-94.12-22.92-126.22-58.08-10.29-11.14-19.12-23.61-26.33-36.95,12.15-.03,24.31-.03,36.48,0,14.41,20.65,34.07,37.59,56.68,48.74,26.3,13.02,56.52,17.98,85.61,14.01,29.16-3.81,56.99-16.64,78.99-36.12-.98-7.29.22-14.99,4.49-21.11Z" style="fill: #4b72f3; stroke-width: 0px;"/>
  </g>
  <g id="_28385aff" data-name="#28385aff">
    <path d="m98.19,69.86h31.42c.01,57.84,0,115.67,0,173.51h-31.42c.03-4.38-.04-8.77.01-13.13-9.35,8.97-21.4,15.68-34.57,16.24-17.55,1.55-35.07-6.28-46.57-19.43C4.03,213.25-1.28,193.62.26,174.97c.83-17.34,8.27-34.53,21.51-45.99,12.25-11.31,29.79-16.06,46.14-13.27,11.6,1.77,22.06,7.99,30.29,16.19-.03-20.68-.01-41.36-.01-62.05m-43.71,75.7c-11.31,3.62-19.84,13.93-22.16,25.47-1.73,8.67-1.28,17.95,2.17,26.15,3.59,8.26,10.37,15.27,18.83,18.54,12.23,4.56,27.25,1.82,36.26-7.91,9.53-9.66,11.64-24.51,8.95-37.36-2.36-11.34-10.92-21.25-21.99-24.8-7.11-2.22-14.92-2.31-22.05-.1Z" style="stroke-width: 0px;"/>
    <path d="m180.9,133.8c4.1-8.5,11.38-15.92,20.82-18.03,6.56-1.79,13.43-.4,19.52,2.32-3.24,9-6.5,18-9.76,27.01-5.05-2.37-11.61-4.27-16.28-.03-9.24,8.06-9.14,21.46-9.94,32.72-.22,21.86.04,43.71-.07,65.58h-31.17v-125.18h26.92c-.03,5.21.04,10.41-.04,15.62Z" style="stroke-width: 0px;"/>
    <path d="m330.4,129.79c13.05-11.67,31.85-15.9,48.79-11.96,10.31,2.32,19.48,8.19,26.94,15.56-.07-4.58,0-9.17-.01-13.74,10.47,0,20.92-.01,31.38,0,.01,41.72.01,83.46,0,125.18h-31.38c.03-4.39-.07-8.79.01-13.19-9.33,8.97-21.36,15.68-34.52,16.26-17.58,1.59-35.12-6.25-46.64-19.41-13.41-14.17-18.61-34.5-16.72-53.62,1.16-17.16,8.89-33.95,22.15-45.09m32.06,17.19c-10.98,3.48-19.38,13.28-21.99,24.4-3.16,13.39-.54,28.97,9.79,38.69,12.16,12.44,34.36,12.27,46.51-.08,9.87-9.42,12.32-24.29,9.83-37.24-2.11-11.35-10.33-21.46-21.28-25.32-7.32-2.53-15.46-2.69-22.86-.44Z" style="stroke-width: 0px;"/>
    <path d="m646.7,132.43c9.03-7.51,19.36-14.34,31.33-15.63,16.06-2.32,33.48,4.8,42.14,18.75,5.88,9.75,6.42,21.5,6.17,32.58-.01,25.57.01,51.14-.01,76.71-10.35-.01-20.7,0-31.05,0-.14-22.82.26-45.64-.23-68.45-.54-8.73-.41-18.68-6.75-25.5-7.58-7.91-21.23-7.23-29.35-.5-8.49,6.93-11.79,18.29-11.91,28.91-.65,21.88-.17,43.78-.32,65.68-10.41-1.45-20.92-.8-31.38-.93,0-41.47-.01-82.94,0-124.4,10.47,0,20.92-.01,31.38,0-.04,4.25.04,8.5,0,12.77Z" style="stroke-width: 0px;"/>
    <path d="m465.81,119.66c10.47-.01,20.94,0,31.42,0,0,41.72,0,83.45-.01,125.18h-31.41c-.01-41.72-.03-83.46,0-125.18Z" style="stroke-width: 0px;"/>
    <path d="m238.43,121.19c11.28-.03,22.56-.01,33.85-.01-8.59,26.23-9.97,54.36-7.23,81.68,1.5,14.06,4.6,27.96,9.6,41.2-11.28-.01-22.56.01-33.84-.01-7.84-23.95-9.72-49.4-9.11-74.46.44-16.32,2.42-32.64,6.74-48.39Z" style="stroke-width: 0px;"/>
    <path d="m547.45,121.18c11.21.01,22.42-.01,33.63.01,7.48,25.97,8.73,53.35,7.12,80.19-.98,14.44-3.37,28.83-7.65,42.66-11.36.03-22.73,0-34.09.01,9.42-25.5,11.42-53.18,9.46-80.12-1.09-14.52-3.8-28.95-8.48-42.76Z" style="stroke-width: 0px;"/>
  </g>
</svg>