<svg xmlns="http://www.w3.org/2000/svg" xmlns:xlink="http://www.w3.org/1999/xlink" version="1.1" x="0px" y="0px" style="enable-background:new 0 0 2169.5 1099;" xml:space="preserve" viewBox="173 98.7 1873.7 899.4">
<style type="text/css">
	.st0{display:none;}
	.st1{display:inline;fill:none;stroke:#FF0000;stroke-width:3;}
	.st2{fill:#FFFFFF;}
	.st3{fill:#3B82F6;}
	.st4{fill:#3D83F6;}
	.st5{fill:#4186F6;}
	.st6{fill:#4085F6;}
	.st7{fill:#4387F6;}
	.st8{fill:#4488F6;}
	.st9{fill:#3F85F6;}
	.st10{fill:#4488F7;}
	.st11{fill:#4588F7;}
	.st12{fill:#4588F6;}
	.st13{fill:#3E84F6;}
	.st14{fill:#4C8DF7;}
	.st15{fill:#4487F6;}
	.st16{fill:#4A8BF7;}
	.st17{fill:#4689F7;}
	.st18{fill:#4B8CF7;}
	.st19{fill:#4D8DF7;}
	.st20{fill:#5592F7;}
	.st21{fill:#4F8FF7;}
	.st22{fill:#4287F6;}
	.st23{fill:#488AF7;}
	.st24{fill:#5291F7;}
	.st25{fill:#5693F7;}
	.st26{fill:#5492F7;}
	.st27{fill:#5C97F7;}
	.st28{fill:#4E8EF7;}
	.st29{fill:#4286F6;}
	.st30{fill:#5392F7;}
	.st31{fill:#5593F7;}
	.st32{fill:#478AF7;}
	.st33{fill:#5090F7;}
	.st34{fill:#5190F7;}
	.st35{fill:#5794F7;}
	.st36{fill:#498BF7;}
	.st37{fill:#3C83F6;}
	.st38{fill:#7CABF9;}
	.st39{fill:#4689F6;}
	.st40{fill:#4286F7;}
	.st41{fill:#4387F7;}
	.st42{fill:#5895F7;}
	.st43{fill:#4487F7;}
</style>
<g id="Layer_1" class="st0">
	<path class="st1" d="M1103,410V227.7c0-37.8,19-56.8,57-56.9l726.3,0.2c37.8-0.2,56.7,18.6,56.7,56.4v216.1   c0,37.8,18.9,56.7,56.7,56.7l66.3-0.2c0,60,0,104.7,0,134v465h-659.6v-76c0-37.3-18.9-56-56.7-56H312c-37.4,0-56.1-18.7-56.1-56   V341.5c0-37.9,19-56.9,56.9-56.9L605,285c37.3,0,56-18.7,56-56l2-229"/>
</g>
<g id="Layer_2">
	<g id="_x23_ffffffff">
		<path class="st2" d="M173.1,98.8h25.4c0,7,0,14.1,0,21.1c-8.5,0-16.9,0-25.4,0V98.8z"/>
		<path class="st2" d="M210,98.8h75c0,7,0,14.1,0,21.1c-25,0-50,0-75,0C210,112.8,210.1,105.8,210,98.8z"/>
		<path class="st2" d="M293.5,98.8h75c0,36.6,0,73.3,0,109.9c-25,0-50,0-75,0C293.5,172,293.5,135.4,293.5,98.8z"/>
		<path class="st2" d="M391.8,98.8H451c0,32,0,64.1,0,96.1c-19.7,0-39.4,0-59.2,0C391.8,162.9,391.8,130.8,391.8,98.8z"/>
		<path class="st2" d="M460.5,98.8h14.8c0,51.8,0,103.6,0,155.3c-18,0-35.9,0-53.9,0c0-16.9,0-33.8,0-50.7c13-0.1,26.1,0,39.1,0    C460.5,168.5,460.5,133.6,460.5,98.8z"/>
		<path class="st2" d="M499.6,98.8h22.2c0,24.3,0,48.6,0,73c1.6,0.1,3.1-0.2,4.6-0.9c12.8-5.5,25.8-10.8,38.6-16.3    c0.7-1.2,1.4-2.5,1.2-4c0-17.3,0-34.5,0-51.8h19c0,19.4,0,38.7,0,58.1c17.3,0,34.5,0,51.8,0c0,26.1,0.1,52.2-0.1,78.2    c-0.3,10.3-9.7,19.2-20,19c-39.1,0-78.2,0-117.3,0C499.6,202.3,499.6,150.5,499.6,98.8z"/>
		<path class="st2" d="M532.3,98.8h24.3c0,15.8,0,31.6,0,47.5c-8.1,3.4-16.1,6.9-24.3,10.1C532.3,137.2,532.3,118,532.3,98.8z"/>
		<path class="st2" d="M595.8,98.8h41.2c0,16.2,0,32.4,0,48.6c-13.7,0-27.5,0-41.2,0C595.7,131.2,595.7,115,595.8,98.8z"/>
		<path class="st2" d="M694,98.8h69.4c11.7,15.8,23.3,31.7,35.1,47.4c-4.2,0.3-8.5,0-12.7,0.1c-3.8,2.2-6.8,5.4-10.5,7.8    c-0.1-6.1,0-12.2,0-18.4c-27.1,0-54.2,0-81.4,0C694,123.4,694,111.1,694,98.8z"/>
		<path class="st2" d="M786.6,98.8h211.7c0,15.9,0,31.7,0,47.5c-58.8,0-117.6,0-176.4,0C810.2,130.4,798.2,114.8,786.6,98.8z"/>
		<path class="st2" d="M1014.2,98.8h178.6c0,13.7,0,27.5,0,41.2c-7,0-14.1,0-21.1,0c-12.3-0.3-24.5,1.3-36.6,3.8    c-15.4,3.3-30.8,8.8-42.9,19.2c-15.8,13.1-26.4,32.5-28.4,53c-16.5,0-33.1,0-49.6,0C1014.2,176.9,1014.2,137.9,1014.2,98.8z"/>
		<path class="st2" d="M1204.4,98.8h29.6c0,13.7,0,27.5,0,41.2c-9.9,0-19.7,0-29.6,0C1204.4,126.2,1204.4,112.5,1204.4,98.8z"/>
		<path class="st2" d="M1244.5,98.8H1347c0,4.6,0,9.2,0,13.7c-5.6,0-11.3,0-16.9,0c0,4.6,0,9.2,0,13.7c5.6,0,11.3,0,16.9,0    c0,4.6,0,9.1,0,13.7c-34.2,0-68.3,0-102.5,0C1244.5,126.2,1244.5,112.5,1244.5,98.8z"/>
		<path class="st2" d="M1354.4,98.8h32.8c0,13.7,0,27.5,0,41.2c-10.9,0-21.8,0-32.7,0c0-4.6,0-9.2,0-13.7c5.3,0,10.6,0,15.9,0    c0-4.6,0-9.1,0-13.7c-5.3,0-10.6,0-15.9,0C1354.4,107.9,1354.4,103.3,1354.4,98.8z"/>
		<path class="st2" d="M1395.6,98.8h18c0,13.7,0,27.5,0,41.2c-6,0-12,0-17.9,0C1395.6,126.2,1395.7,112.5,1395.6,98.8z"/>
		<path class="st2" d="M1422.1,98.8h30.8c-4.1,4.2-5.1,10.2-5.4,15.9c0,8.5,0,16.9,0,25.3c-8.4,0-16.9,0-25.3,0    C1422,126.2,1422.1,112.5,1422.1,98.8z"/>
		<path class="st2" d="M1466.8,98.8h32.4c0,4.2,0,8.5,0,12.7c-13.4,0-26.8,0-40.2,0C1458.1,105.9,1461.1,100.1,1466.8,98.8z"/>
		<path class="st2" d="M1507.6,98.8h28.5c0,13.7,0,27.5,0,41.2c-9.5,0-19,0-28.5,0C1507.6,126.2,1507.7,112.5,1507.6,98.8z"/>
		<path class="st2" d="M1560.5,98.8h53.9c0,6,0,12,0,18c-18,0-35.9,0-53.9,0C1560.5,110.7,1560.5,104.7,1560.5,98.8z"/>
		<path class="st2" d="M1624,98.8h35.6c0,6,0,11.9,0,17.9c-11.9,0.1-23.7,0.1-35.6,0C1624.1,110.7,1624.1,104.7,1624,98.8z"/>
		<path class="st2" d="M1668.3,98.8h29.6c0,6,0,12,0,17.9c-9.9,0-19.7,0-29.6,0C1668.2,110.7,1668.3,104.7,1668.3,98.8z"/>
		<path class="st2" d="M1708.5,98.8h97.8c-15.6,9.4-27.2,24.1-35.8,39.9c-20.6,0.5-41.3,0.1-61.9,0.2    C1708.5,125.5,1708.5,112.1,1708.5,98.8z"/>
		<path class="st2" d="M1830.3,98.8h216.3v109.9c-27.8,0-55.6,0-83.5,0c-0.1-6.7,0.1-13.5-0.1-20.2c-3.4-15.3-11.6-30.7-25.6-38.7    c-9.3-5.3-19.7-8.9-30.3-10.8c-39.5-0.1-79.1,0-118.6-0.1C1799,122.4,1814.7,110.2,1830.3,98.8z"/>
		<path class="st2" d="M1459.1,122c13.4,0,26.7,0,40.1,0c0,6,0,12,0,17.9c-13.4,0-26.8,0-40.2,0C1459,134,1459,128,1459.1,122z"/>
		<path class="st2" d="M1560.5,125.2c18,0,35.9,0,53.9,0c0,4.9,0,9.8,0,14.8c-18,0-35.9,0-53.9,0    C1560.5,135,1560.5,130.1,1560.5,125.2z"/>
		<path class="st2" d="M1624,125.2c11.9-0.1,23.7-0.1,35.6,0c-0.1,4.9-0.1,9.8,0,14.7c-11.9,0.1-23.8,0.1-35.6,0    C1624.1,135,1624.1,130.1,1624,125.2z"/>
		<path class="st2" d="M1668.3,125.2c9.9,0,19.7,0,29.6,0c0,4.9,0,9.9,0,14.8c-9.9,0-19.7,0-29.6,0    C1668.2,135,1668.3,130.1,1668.3,125.2z"/>
		<path class="st2" d="M173.1,130.5c37.3,0,74.7,0,112,0c0,12.3,0,24.7,0,37c-37.3,0-74.7,0-112,0V130.5z"/>
		<path class="st2" d="M694,150.5c21.5,0,43,0,64.4,0c-0.1,5.7,0.1,11.3-0.1,17c-2.6,2.1-5.2,4.7-8.3,6.1c-18.7,0-37.4,0-56.1,0    C694,166,694,158.3,694,150.5z"/>
		<path class="st2" d="M791.4,163.4c6.5-0.3,13.2-0.3,19.7,0c47.2,64.1,94.7,128,141.9,192.1c-49.7,0.2-99.4,0-149.1,0.1    c-19.3,1.5-39.9,8.2-51.9,24.2c-6.5,9.8-14.3,19.9-25.8,24c-5.1,1.5-11.5,2.7-15.8-1.2c-5-4.9-9.6-10.2-14.1-15.5    c-5.9-7.3-13.5-12.9-21.3-17.9c-18.2-11.5-38.2-19.6-58.1-27.4c0.3-11.1-0.3-22.2,0.3-33.3c11.6-0.7,23.1-3.4,33.9-7.5    c9.5-4.8,18.9-10.5,25.7-18.8c9.6-11.9,14.9-26.7,17.3-41.7c0-16.6,0-33.2,0-49.8c20.8,0,41.6,0,62.4,0    C768.3,182,779.7,172.4,791.4,163.4z"/>
		<path class="st2" d="M834.6,163.4c54.6-0.3,109.2-0.1,163.7-0.1c0,46.1,0,92.3,0,138.4c-20.1-0.1-40.2,0.1-60.3-0.1    C903.3,255.7,869.2,209.3,834.6,163.4z"/>
		<path class="st2" d="M173.1,178c8.4,0,16.9,0,25.3,0c0.1,9.9,0,19.7,0,29.6c-8.4,0-16.9,0-25.3,0V178z"/>
		<path class="st2" d="M210.1,178c25,0,50,0,75,0c0,9.8,0,19.7,0,29.6c-25,0-50,0-75,0C210,197.7,210,187.9,210.1,178z"/>
		<path class="st2" d="M1149.6,205.7c12.9-7.9,28.6-7.8,43.1-7.6c49.7,0,99.3,0,149,0c0,23.9,0,47.9,0,71.8c-68.7,0-137.4,0-206,0    c0.6-15.9-2-32.3,2.9-47.7C1140.7,215.9,1143.5,209.1,1149.6,205.7z"/>
		<path class="st2" d="M1358.7,198.1c14.1,0,28.2,0,42.2,0c0,29.6,0,59.2,0,88.8c27.5,0,54.9,0,82.4,0c-0.1,6.9,0.3,13.9-0.2,20.8    c-7-1.5-14.7,2.1-18.3,8.3c-0.7,1-1,2.8-2.6,2.7c-18,0.7-37.2-1.9-52.3-12.6c-7.1-4.8-11.3-12.5-17.4-18.4    c-9.1-9.2-20.7-17-34-17.9C1358.6,245.9,1358.7,222,1358.7,198.1z"/>
		<path class="st2" d="M1417.8,198.1c21.8,0,43.7,0,65.5,0c0,24.3,0,48.6,0,72.9c-21.8,0-43.7,0-65.5,0    C1417.8,246.7,1417.8,222.4,1417.8,198.1z"/>
		<path class="st2" d="M1499.2,198.1c53.2,0,106.4,0,159.5,0c0,12,0,23.9,0,35.9c-53.2,0-106.4,0-159.5,0    C1499.2,222,1499.2,210.1,1499.2,198.1z"/>
		<path class="st2" d="M1672.5,198.1c10.6,0,21.1,0,31.7,0c0,12,0,23.9,0,35.9c-10.6,0-21.1,0-31.7,0    C1672.5,222,1672.5,210.1,1672.5,198.1z"/>
		<path class="st2" d="M1712.6,198.1c10.6-0.1,21.1,0,31.7,0c0,12,0,23.9,0,35.9c-10.6,0-21.1,0-31.7,0    C1712.6,222,1712.6,210.1,1712.6,198.1z"/>
		<path class="st2" d="M1751.8,198.1c27.8,0,55.6,0,83.5,0c0,12,0,23.9,0,35.9c-27.8,0-55.7,0-83.5,0    C1751.7,222,1751.7,210.1,1751.8,198.1z"/>
		<path class="st2" d="M1843.7,198.1c22.2,0,44.4,0,66.5,0c0,12,0,24,0,35.9c-22.2,0-44.4,0-66.5,0    C1843.7,222,1843.7,210.1,1843.7,198.1z"/>
		<path class="st2" d="M391.8,203.4c7,0,14.1,0,21.1,0c0,16.9,0,33.8,0,50.7c-7,0-14.1,0-21.1,0    C391.8,237.2,391.8,220.3,391.8,203.4z"/>
		<path class="st2" d="M173.1,217.1c21.1,0,42.3,0,63.4,0c0,12.3,0,24.7,0,37c-21.1,0-42.3,0-63.4,0V217.1z"/>
		<path class="st2" d="M248.1,217.1c12.3,0,24.6,0,37,0c0,12.3,0,24.7,0,37c-12.3,0-24.6,0-37,0    C248.1,241.8,248.1,229.4,248.1,217.1z"/>
		<path class="st2" d="M293.5,217.1c11.3,0,22.5,0,33.8,0c0,12.3,0,24.6,0,37c-11.3,0-22.5,0-33.8,0    C293.5,241.8,293.5,229.4,293.5,217.1z"/>
		<path class="st2" d="M334.7,217.1c11.3,0,22.5,0,33.8,0c0,12.3,0,24.6,0,37c-11.3,0-22.5,0-33.8,0    C334.7,241.8,334.7,229.4,334.7,217.1z"/>
		<path class="st2" d="M1965.2,221.3c27.1,0,54.2,0,81.4,0v239.9c-27.1,0-54.2,0-81.4,0C1965.2,381.2,1965.2,301.3,1965.2,221.3z"/>
		<path class="st2" d="M1014.2,231.9c16.5,0,33-0.1,49.5,0.1c-0.1,25.7,1,51.4,1.4,77.1c0.2,10.5,0.3,21,0.6,31.5    c-17.2,0.4-34.4,0.1-51.5,0.1C1014.2,304.4,1014.2,268.2,1014.2,231.9z"/>
		<path class="st2" d="M1499.2,242.5c79.9,0.1,159.8-0.2,239.7,0.1c-4.1,25.6-8.2,51.1-12,76.7c-16,0.6-32.1,0.1-48.2,0.3    c-0.8-9.8-7.1-18.9-16.1-22.9c-4.5-2.1-9.6-2.7-14.5-2.5c-21.5,0-43,0-64.5,0c-5.2-0.2-10.5,0.4-15.2,2.8    c-8.7,4.1-14.7,13-15.5,22.6c-18,0.1-35.9,0-53.9,0C1499.2,293.9,1499.2,268.2,1499.2,242.5z"/>
		<path class="st2" d="M1755.9,242.5c51.5,0,102.9,0,154.4,0c-0.1,56.8,0.1,113.6-0.1,170.5c-15.3-14.9-31.3-29.2-49.1-40.9    c-12.7-8.1-26.5-15.7-41.7-17.5c-17.2-0.9-34.8-1.5-51.7,2.4c-10.9,2.3-21.2,6.6-31.4,11C1742.8,326.2,1749.2,284.3,1755.9,242.5z    "/>
		<path class="st2" d="M183.6,268.9c25.5,0.1,51-0.2,76.4,0.1c-3.2,2.2-7,3.6-9.9,6.3c-4.9,3.8-8.5,9-10.3,14.9    c-2.9,9.8-3.2,20.3-2.5,30.4c-17.9,0.1-35.9,0.1-53.8,0C183.6,303.4,183.6,286.1,183.6,268.9z"/>
		<path class="st2" d="M1135.7,284.7c68.7,0,137.4,0,206,0c0.1,42.3,0,84.6,0,126.9c-23.1,7.8-45.7,18.1-64.5,33.8    c-9.3,7.5-17.5,16.3-25.9,24.8c-1,0.9-2.2,2.5-3.7,1.6c-15.4-3.8-27.8-14.9-36.7-27.6c-6.8-10-18.1-16.1-29.5-19.3    c-14.8-4.1-30.4-4.7-45.7-3.8C1135.7,375.6,1135.7,330.2,1135.7,284.7z"/>
		<path class="st2" d="M1358.7,284.5c14.9,2.4,26.9,12.8,36.3,24c7.5,10.2,19.2,16.5,31.3,19.5c10.4,2.6,21.1,3.6,31.8,2.9    c2.5-0.5,5.6,0.5,6.5,3.1c3.4,6.6,11.4,10.2,18.7,8.9c0.1,20.8,0,41.6,0.1,62.4c-41.6,0.2-83.1,1-124.6,2.9    C1358.6,367.1,1358.7,325.8,1358.7,284.5z"/>
		<path class="st2" d="M1577.9,305.5c2.6-0.8,5.3-0.7,8-0.7c21.9,0,43.7-0.1,65.6,0.1c9.5,0.4,17.5,9.5,16.7,19    c-0.4,9.2-8.7,17.1-17.9,16.9c-21.8,0-43.7,0-65.5,0c-11.5,1.5-22.3-9.9-19.7-21.3C1566.3,312.8,1571.5,307.2,1577.9,305.5z"/>
		<path class="st2" d="M287.5,324.8c1.4-9.4,10.2-16.9,19.8-16.8c21.1,0,42.3,0,63.4,0c0,10.9,0,21.8,0,32.7c-27.8,0-55.6,0-83.5,0    C287.3,335.4,286.9,330.1,287.5,324.8z"/>
		<path class="st2" d="M386.5,308c53.5,0,107.1,0,160.6,0c0,10.9,0,21.8,0,32.7c-53.5,0-107.1,0-160.6,0    C386.5,329.8,386.5,318.9,386.5,308z"/>
		<path class="st2" d="M556.6,308c16.2,0,32.4,0,48.6,0c0,10.9,0,21.8,0,32.7c-16.2,0-32.4,0-48.6,0    C556.6,329.8,556.6,318.9,556.6,308z"/>
		<path class="st2" d="M947.5,314.3c16.9-0.1,33.9,0,50.8,0c-0.1,22.6,0.3,45.3-0.2,67.9C981.2,359.6,964.3,337.1,947.5,314.3z"/>
		<path class="st2" d="M1499.2,330.2c18.2,0.1,36.4-0.1,54.7,0.1c2.6,11.7,13.6,20.7,25.6,21c24.3,0.1,48.6,0.1,72.9,0    c12-0.2,23.1-9.3,25.6-21c15.4-0.2,30.8-0.1,46.3-0.1c0.3,7.8-1.8,15.4-2.7,23.1c-1.3,8.1-2.5,16.2-3.9,24.3    c-39.9,22.9-86.3,31.9-131.8,32.6c-16.2,0.3-32.4-0.6-48.5-2.5c-12.6-1.1-25.3-1.8-37.9-1.7    C1498.9,380.7,1499.3,355.4,1499.2,330.2z"/>
		<path class="st2" d="M173.1,332.3c21.1,0,42.3,0,63.4,0c0,10.9,0,21.8,0,32.8c-21.1,0-42.3,0-63.4,0V332.3z"/>
		<path class="st2" d="M287.2,353.4c26.4,0,52.8,0,79.2,0c1.5,0,3.1-0.2,4.6,0.4c0.1,14.1,1.9,28.3,1.8,42.4    c-28.4-2.3-56.7-5.3-85.1-7.5c-0.1-0.3-0.3-1-0.4-1.4C287.2,376.1,287.2,364.7,287.2,353.4z"/>
		<path class="st2" d="M386.5,353.4c33.8,0,67.6-0.1,101.3,0c6.6,16,12,32.4,18,48.6c11,30.4,22.1,60.6,32.9,91.1    c-11.8-2.1-23.4-5.3-35.1-7.9c-35.9-8.3-71.8-16.7-107.6-25c-1.3-0.2-2.6-0.4-3.9-0.4c-2.1-30.5-3.6-61-5.6-91.5    C386.4,363.4,386.6,358.4,386.5,353.4z"/>
		<path class="st2" d="M519.3,354.6c27.3,0.1,54.6,1.3,81.7,4.2c-0.4,19.7-0.7,39.3-1.2,59c-22.6-17.9-45.5-35.4-68.2-53.1    C527.6,361.2,523,358.4,519.3,354.6z"/>
		<path class="st2" d="M1014.2,357.7c17.3,0,34.5,0,51.8,0c0.7,39.2,1.4,78.4,2,117.6c-1.3-0.6-1.8-2-2.7-3    c-17-22.8-34-45.5-50.9-68.3C1013.9,388.6,1014.3,373.1,1014.2,357.7z"/>
		<path class="st2" d="M616.9,362.5c19.4,3.6,36.9,13.9,52.3,25.9c-2.8,4.6-6.2,8.7-9.4,13.1c-6.7,8.8-13.2,17.8-21,25.6    c-5.7,5.4-14.3,5.6-21.5,4c-0.5-1.5-0.3-3.2-0.3-4.7C616.9,405,616.9,383.8,616.9,362.5z"/>
		<path class="st2" d="M800.1,369.9c11.4-2.6,23.1-1.4,34.6-1.7c8.3,20,15.9,40.2,24,60.3c0.7,2.3,2.4,4.5,2.2,7.1    c-29.5,0.1-59.2,0.4-88.6-2c-15.3-1.2-30.3-6.4-43-15l-0.2-0.8c13.6-2.1,23.6-12.9,30.8-23.8C768.6,380.2,784.5,373,800.1,369.9z"/>
		<path class="st2" d="M853.2,368.2c36.4,0,72.8-0.1,109.2,0.1c8.7,11.3,17,23,25.6,34.4c0.7,1.1,1.9,2,1.9,3.5    c-14.7,8.7-29.7,17-45.7,22.9c-10.2,3.9-21.3,4-32.1,4.7c-10.9,0.4-22,1.5-32.9,0.9C870.7,412.5,861.6,390.5,853.2,368.2z"/>
		<path class="st2" d="M1773.7,375.3c14.1-3.9,29.1-6.3,43.6-3.4c18.7,3.4,35.2,14,50,25.6c15.1,12.2,29.4,25.5,42.5,39.8    c1.2,8.5-0.2,17.5,0.7,26.2c1.3,14.4,7.6,28.6,18.7,38.1c-2,8-3.7,16.1-6.1,24c-9.4,42-19,83.9-28.7,125.8    c-74.3,0.1-148.7,0-223,0c0-78.8,0-157.6,0-236.4c2.2-1.7,4.8-2.5,7.3-3.5C1709.8,397.8,1741.1,384.4,1773.7,375.3z"/>
		<path class="st2" d="M513,371.1c12.4,8.9,24.1,18.7,36.2,27.9c16.8,13.1,33.6,26.2,50.4,39.2c0.8,7.2,0.1,14.6,0.3,21.9    c-18,0-36,0-54,0c-10-26.3-19.6-52.9-29.5-79.3C515.3,377.6,513.8,374.5,513,371.1z"/>
		<path class="st2" d="M173.1,376.7c21.1,0,42.3,0,63.4,0c0,15.1,0,30.3,0,45.4c-12.6,0-25.2,0.2-37.8-0.1    c-6.9-7.7-13.4-15.8-19-24.4c-2.3-3.2-4-6.8-6.6-9.8V376.7z"/>
		<path class="st2" d="M682.5,400.2l0.7-0.2c11.6,12.5,24.3,24.1,38.3,33.9c12.2,8.3,26.5,13.5,41.3,14.5c0,49.7,0,99.4,0,149.2    c-34.2,0-68.3,0-102.5,0c0-45.8,0-91.6,0-137.4c-14.8,0-29.6,0-44.4,0c0-3.9,0-7.7,0-11.6c6.7-0.2,13.6,0.7,20.1-1.5    c8.1-3.5,16-8,22.4-14.1C668.2,423.5,675.6,411.8,682.5,400.2z"/>
		<path class="st2" d="M287.2,404.9c27.8,2.3,55.6,5,83.5,7.5c1.2,0,2.4,0.2,3.6,0.6c0.4,14.6,1.8,29.3,2.3,43.9    c-29.8,0-59.6,0-89.4,0C287.2,439.6,287.2,422.3,287.2,404.9z"/>
		<path class="st2" d="M173.1,411c15.7,24.6,35.7,47.2,61,62.2c0.2,1.3,0.3,2.6,0.3,3.9c-0.1,51.8,0.1,103.6-0.1,155.4    c-6,3.3-12.7,5.5-19,8.5c-3.3,1.8-7.1,0.6-10.6,0.4c-11.1-1.1-21.8-5-31.6-10.4V411z"/>
		<path class="st2" d="M1575.8,426.7c25.8,0.3,51.5-3.3,76.6-8.9c0.5-0.1,1.6-0.2,2.1-0.3c-0.1,12,0,24.1-0.1,36.1    c-26.7,2.2-53.5,5.1-80.2,7C1574.4,449.3,1575.3,438,1575.8,426.7z"/>
		<path class="st2" d="M1468,419.7c15.7-1.6,31.6-1,47.2,1.6c15,2.5,30.1,4,45.2,5.1c0.9,1.6,0.8,3.5,0.9,5.3    c-1.7,29.5-3.5,58.9-5.2,88.4c-45.7,10.4-91.4,21.1-137.1,31.8l-0.3-0.8c15-41.7,30.2-83.4,45.3-125.1    C1465.2,423.9,1465.5,420.8,1468,419.7z"/>
		<path class="st2" d="M987.1,429.1c4.9-2.9,9.5-6.3,14.3-9.5c22.7,25.1,45,50.6,67.6,75.7c0.2,9.1,0.1,18.2,0.1,27.3    c-39.8-25.4-79.5-50.9-119.2-76.4l-0.2-0.7C962.6,441,975.4,436.1,987.1,429.1z"/>
		<path class="st2" d="M1359,424.9c25.8-2.3,51.6-3.8,77.5-3.8c-2.8,3.1-6.5,5.3-9.6,8c-22.3,17.7-44.8,35.3-67,53.1    c-0.7-16.1-0.6-32.3-1-48.5C1358.9,430.8,1358.3,427.8,1359,424.9z"/>
		<path class="st2" d="M1330.1,433.2c4.1-1.4,8.3-2.3,12.4-3.5c0.5,21.4,0.1,42.8,0.2,64.2c-7.7,2.2-17,1.5-22.9-4.4    c-10.2-10.1-18.7-21.6-27.6-32.7c-0.7-0.9-2.3-2.5-0.5-3.3C1303.6,445.1,1316.2,437.5,1330.1,433.2z"/>
		<path class="st2" d="M204.2,431.6c10.4,0,20.8,0,31.2,0c0,9.2,0,18.4,0,27.6C223.5,451.9,212.5,442.8,204.2,431.6z"/>
		<path class="st2" d="M1135.7,435.6c15.6-0.3,31.6,1,46.1,7c7.7,3.2,14.9,8.2,19.7,15.1c7.9,11.4,18.5,21.3,31.4,26.7l-0.2,0.8    c-14.8,8.1-31.7,11-48.3,12.4c-16.2,1.4-32.5-0.1-48.7-0.5C1135.7,476.6,1135.7,456.1,1135.7,435.6z"/>
		<path class="st2" d="M1408.1,463.1c11.5-8.7,22.5-18,34.3-26.4c-10,28.6-21.2,56.9-31.3,85.5c-17.4,0.5-35,0.1-52.4,0.2    c0.1-7-0.1-14,0.1-20.9C1375.3,488.8,1391.7,475.9,1408.1,463.1z"/>
		<path class="st2" d="M900.1,449.6c8.1-0.1,16.3,0,24.4,0c1.7-0.3,3.1,1,4.4,1.8c36.5,24.1,73.1,48,109.6,72.1    c0,24.7,0,49.4,0,74.1c-46.1,0-92.3,0-138.4,0C900,548.2,900.1,498.9,900.1,449.6z"/>
		<path class="st2" d="M780.7,450.6c33.8,0,67.6,0,101.4,0c0,49,0,97.9,0,146.9c-15.1,0-30.3,0-45.4,0c0-39.1,0-78.2,0-117.3    c-2.8,0-5.6,0-8.5,0c0,39.1,0,78.2,0,117.3c-15.9,0-31.7,0-47.5,0C780.6,548.6,780.7,499.6,780.7,450.6z"/>
		<path class="st2" d="M1241,497.9c13.7-9.4,25.9-20.8,37.4-32.6c3.1,3.6,5,8.4,8,12.3c8.1,12.4,18.5,23.9,32.3,30.1    c6.7,4.8,15.4,2.9,23.1,3.3c0,3.6,0,7.2,0,10.8c-13.9,0.1-27.9-0.1-41.9,0.1c-0.3,43.2,0,86.4-0.1,129.6c-32.2,0-64.4,0.1-96.6,0    c-0.1-37,0-73.9,0-110.9c0.1-9.8-0.3-19.6,0.2-29.4C1216.7,509.4,1229.8,505.4,1241,497.9z"/>
		<path class="st2" d="M1573.3,476.4c27.1-2.2,54.1-5.2,81.1-7.1c-0.2,16.1,0.3,32.3-0.3,48.4c-27.6-0.2-55.3-0.2-82.9,0    c-0.8-3.3-0.1-6.8-0.1-10.1C1572.2,497.3,1572.1,486.7,1573.3,476.4z"/>
		<path class="st2" d="M287.2,473.9c29.9,0,59.9,0,89.8,0c0,9.2,0,18.3,0,27.5c-29.9,0-59.9,0-89.8,0    C287.2,492.2,287.2,483,287.2,473.9z"/>
		<path class="st2" d="M392.9,476.8l0.8-0.3c11.1,2.5,22.2,5.1,33.3,7.6c-0.9,6.8-3.8,13.3-5.2,20c-9.3-1.8-18.6-3.9-27.8-5.9    C393.6,491.1,393.4,484,392.9,476.8z"/>
		<path class="st2" d="M550.9,477.1c16.3,0,32.7,0,49,0c0.1,10.1,0,20.1,0,30.2c-13.8-3.1-27.5-6.5-41.2-10    C555.7,490.8,553.4,483.8,550.9,477.1z"/>
		<path class="st2" d="M616,477.2c9.4-0.2,18.7-0.2,28.1,0c-0.1,40.1-0.1,80.1,0,120.2c-9.4,0.3-18.7,0.2-28.1,0.1    C616.1,557.3,616.1,517.2,616,477.2z"/>
		<path class="st2" d="M443.2,488.3l1-0.2c29.4,6.8,58.7,13.8,88.1,20.6c4.4,1.2,9.1,1.7,13.4,3.4c7.5,10.5,15,20.9,22.5,31.3    c-22.7,2.5-46.9,3.1-68.2-6.7c-5.9-2.6-10.5-7.3-16.3-10.1c-14.8-7.6-30.5-13-46.1-18.8C439.5,501.4,441.3,494.8,443.2,488.3z"/>
		<path class="st2" d="M287.2,509.8c28.2,0.1,56.4-0.3,84.6,0.2c-15.9,11.8-31.6,24.1-47.6,35.7c-12.3,0.1-24.7,0-37,0    C287.2,533.7,287.2,521.8,287.2,509.8z"/>
		<path class="st2" d="M1078.6,510.9c38.4,0,76.8,0,115.2,0c0,4.6,0,9.2,0,13.7c-38.4,0-76.8,0-115.2,0    C1078.6,520,1078.6,515.4,1078.6,510.9z"/>
		<path class="st2" d="M383.6,513.1c10.4,2.2,20.7,4.6,31,6.7c1.2,1.1-0.1,3-0.2,4.4c-2.9,11.8-5.8,23.5-9.3,35.1    c-3.7,12.4-3.6,25.7-0.6,38.2c-39.1,0-78.2,0-117.3,0c0-13.7,0-27.5,0-41.2c13,0,26,0.1,39,0c2.6-2.5,5.5-4.5,8.3-6.6    C350.8,537.5,367.2,525.3,383.6,513.1z"/>
		<path class="st2" d="M1947.5,513.7c6.8,2.7,13.6,5.6,20.9,6.6c26.1,0,52.2,0,78.2,0v251c-3.2,11-5.5,22.3-8.3,33.4    c-6.6,27-12.8,54-19.5,80.9c-50.5-12.5-101.2-24.4-151.6-37C1894.1,737.1,1920.6,625.4,1947.5,513.7z"/>
		<path class="st2" d="M568.2,517.2c10.7,2,21.2,4.8,31.8,7.3c0,10.8,0,21.7,0,32.5l-0.9-0.5C588.9,543.3,578.3,530.4,568.2,517.2z"/>
		<path class="st2" d="M428.1,541.7c1.7-5.8,2.6-12.1,4.7-17.7c13.6,5.1,27.1,10.4,40.1,16.9c11.5,6.1,22.2,14.2,35.1,17.4    c23.1,5.6,47.2,4.9,70.6,1.5c7,9.1,14.2,18.2,21.2,27.4c1,3.3,0.3,6.9,0.4,10.3c-59.2,0-118.3,0.1-177.5,0    c-1.6-6.9-2.6-14-2.2-21.1C420.8,564.4,425.5,553.2,428.1,541.7z"/>
		<path class="st2" d="M1045.9,532c6,0,12,0,18,0c0,21.8,0,43.7,0,65.5c-6,0-12,0-18,0C1045.9,575.7,1045.9,553.8,1045.9,532z"/>
		<path class="st2" d="M1071.3,532c18.7,0,37.3,0,56,0c0,21.8,0,43.7,0,65.5c-18.7,0-37.3,0-56,0    C1071.2,575.7,1071.2,553.8,1071.3,532z"/>
		<path class="st2" d="M1135.7,532c19.4,0,38.7,0,58.1,0c0,21.8,0,43.7,0,65.5c-19.4,0-38.7,0-58.1,0    C1135.7,575.7,1135.7,553.8,1135.7,532z"/>
		<path class="st2" d="M1570,535.2c28.2,0,56.3,0,84.5,0c0,8.5,0,17,0,25.5c-28.2,0-56.3,0-84.5,0C1570,552.2,1570,543.7,1570,535.2    z"/>
		<path class="st2" d="M1316.4,537.3c8.4-0.1,16.9,0,25.3,0c0,38,0,76.1,0,114.1c-8.4,0-16.9,0-25.3,0    C1316.4,613.4,1316.4,575.3,1316.4,537.3z"/>
		<path class="st2" d="M1358.7,538.3c15.3,0,30.6,0,45.9,0c-2.2,6-4.7,11.9-7,17.9c-12.9,3.2-25.9,6.4-38.9,9    C1358.7,556.3,1358.6,547.3,1358.7,538.3z"/>
		<path class="st2" d="M1522.6,544.9c10.8-2.3,21.5-5.2,32.3-7.1c-0.5,6.8-0.5,13.5-1,20.3c-8.6,1.7-17.2,3.5-25.8,5.5    C1526,557.4,1524.5,551,1522.6,544.9z"/>
		<path class="st2" d="M1493.5,551.5c4.7-0.8,9.4-2.7,14.2-2.9c1.4,6.3,4,12.3,5,18.7c-14.2,4.8-28.4,10-41.9,16.6    c-6.6,3-11.7,8.4-18.5,11c-19.6,8.3-41.4,7.4-62.1,5.6c6-9.9,13.5-19,20.1-28.5c0.8-1.8,2.8-1.7,4.4-2.1    C1441,563.7,1467.2,557.6,1493.5,551.5z"/>
		<path class="st2" d="M1575.4,569.5c1.1-0.9,2.7-0.6,4.1-0.6c25,0.1,50,0,75,0.1c-0.1,11.2,0.4,22.4-0.3,33.5    c-10.1-0.3-20.2-0.1-30.4-0.1c-1.8-0.1-3.7,0.4-5.2-0.7C1604.2,591,1590.1,579.8,1575.4,569.5z"/>
		<path class="st2" d="M1534.4,578c9.8-1.5,19.5-4.3,29.3-6c18.6,13,36.4,27.2,55,40.2c12,0.1,23.9,0,35.9,0c0,12.8,0,25.5,0,38.3    c-36.7,0.1-73.4,0.1-110.2,0c2.5-12,2.5-24.4-0.8-36.2c-3.2-9.6-5.6-19.5-8-29.4C1535.2,582.7,1533.8,580.4,1534.4,578z"/>
		<path class="st2" d="M1358.7,582.9c9.9-2,19.6-4.9,29.6-6.6c-6.9,8.9-14.1,17.6-21.1,26.5c-2.9,3.3-5.3,7.3-8.5,10.2    C1358.7,603,1358.6,593,1358.7,582.9z"/>
		<path class="st2" d="M1480.2,597.6c12.1-5.9,24.6-10.8,37.2-15.6c2.3,6.9,3.6,14.3,5.7,21.4c2.3,9.2,5.9,18.3,5.9,27.9    c0.2,6.5-0.4,13-2.2,19.3c-55.7,0.2-111.5,0.1-167.2,0.1c0.2-3.1-0.5-6.5,0.4-9.5c6.7-8.6,13.4-17,20-25.7    c22.3,3.1,45.4,3.8,67.4-1.6C1459.4,610.8,1469.4,603.2,1480.2,597.6z"/>
		<path class="st2" d="M286.1,611.2c49.3,0,98.7,0,148,0c0,10.9,0.1,21.8,0,32.7c-23,1.7-45.6,9.9-64.2,23.5    c-30.2,21.8-50.1,57.4-52.3,94.6c-10.5,0.5-21,0.1-31.4,0.2C286.1,712,286.1,661.6,286.1,611.2z"/>
		<path class="st2" d="M452,611.3c49.3,0,98.7,0,148,0c0,50.4,0,100.7,0,151.1c-10.5-0.1-21,0.3-31.4-0.2    c-2.1-37.2-22.1-72.9-52.3-94.7C497.5,653.8,475,645.7,452,644C451.9,633.1,451.9,622.2,452,611.3z"/>
		<path class="st2" d="M614.8,611.3c18.7,0,37.3,0,56,0c0,35.9,0,71.8,0,107.8c6.3,0,12.6,0,19,0c0.1,26.4,0,52.8,0,79.2    c50.4,0,100.7,0,151.1,0c0,14.8,0,29.6,0,44.4c-75.4,0-150.7,0-226.1,0C614.7,765.5,614.7,688.4,614.8,611.3z"/>
		<path class="st2" d="M686.6,611.3c51.4,0,102.8,0,154.3,0c0,30.3,0,60.6,0,90.9c-51.4,0-102.8,0-154.3,0    C686.6,671.8,686.6,641.5,686.6,611.3z"/>
		<path class="st2" d="M859.9,611.2c55.6,0,111.3,0,166.9,0c0,22.9,0,45.8,0,68.7c-55.6,0-111.3,0-166.9,0    C859.9,657,859.9,634.1,859.9,611.2z"/>
		<path class="st2" d="M1036.4,611.3c30.3,0,60.6,0,90.9,0c0,20.8,0,41.5,0,62.3c-30.3,0-60.6,0-90.9,0    C1036.4,652.8,1036.4,632,1036.4,611.3z"/>
		<path class="st2" d="M1135.7,611.2c11.3,0,22.5,0,33.8,0c0,106.7,0,213.4,0,320.2c-11.3,0-22.5,0-33.8,0    C1135.7,824.7,1135.7,718,1135.7,611.2z"/>
		<path class="st2" d="M214.1,653.3c7.1-3.4,14.1-7.2,21.3-10.5c0,5.3,0.1,10.7,0,16c-9.8-0.8-19.7-1.2-29.6-2.1c0-0.8,0-2.3,0-3.1    C208.6,653.6,211.4,653.9,214.1,653.3z"/>
		<path class="st2" d="M173.1,646c8.1,2.2,16.2,4,24.3,6.4c-0.3,17.1-0.9,34.3-1,51.4c-7.8-1.3-15.4-4.3-23.2-5V646z"/>
		<path class="st2" d="M432.5,663.9c22.5-2.4,45.7,3,65.1,14.8c30.8,18.4,51.1,53.1,51.8,89c1.8,37.4-17.7,74.8-49.3,94.9    c-20.2,13.1-45.1,19.1-69.1,16.2c-33.5-3.5-64.3-24.4-80.6-53.7c-10.7-18.9-15.5-41-13.7-62.6c2.5-35.8,24.4-69.5,56.1-86.4    C405.1,669.4,418.7,665.1,432.5,663.9z"/>
		<path class="st2" d="M205.9,665.2c9.8,0.9,19.7,1.2,29.5,2.1c0,14.6,0,29.2,0,43.8c-9.9-1.5-19.7-4-29.6-5.9    C205.8,691.8,205.8,678.5,205.9,665.2z"/>
		<path class="st2" d="M1190.7,668.3c33.1,0,66.2,0,99.3,0c0,28.5,0,57.1,0,85.6c-33.1,0-66.2,0-99.3,0    C1190.6,725.4,1190.6,696.8,1190.7,668.3z"/>
		<path class="st2" d="M1297.4,668.3c15.1,0,30.3,0,45.4,0c0,73.3,0,146.5,0,219.8c-50.7,0-101.4,0-152.2,0c0-14.4,0-28.9,0-43.3    c35.6,0,71.1,0,106.7,0C1297.4,786,1297.4,727.1,1297.4,668.3 M1320.7,722.3c-1.3,1.8,1.7,3.1,2.8,1.8    C1323.6,722.9,1321.7,721.5,1320.7,722.3z"/>
		<path class="st2" d="M1359.7,668.3c17.6,0,35.2,0,52.8,0c0,33.3,0,66.5,0,99.8c-17.7-5.2-35.2-10.9-52.8-16.4    C1359.7,724,1359.7,696.1,1359.7,668.3z"/>
		<path class="st2" d="M1424.2,668.3c10.9,0,21.8,0,32.7,0c0,16.2,0,32.4,0,48.6c-10.9,0-21.8,0-32.7,0    C1424.2,700.7,1424.2,684.5,1424.2,668.3z"/>
		<path class="st2" d="M1467.5,668.3c6.3-0.1,12.7,0,19,0c0,26.1,0,52.1,0,78.2c-6.4,0-12.7,0-19,0    C1467.5,720.4,1467.5,694.4,1467.5,668.3z"/>
		<path class="st2" d="M1498.2,668.3c9.2,0,18.3,0,27.5,0c0,45.1,0.1,90.2-0.1,135.3c-2.7-0.9-5.5-1.8-8.2-2.5    c-0.4-18.2,0-36.4-0.2-54.6c-6.3,0-12.7,0-19,0C1498.1,720.4,1498.1,694.4,1498.2,668.3z"/>
		<path class="st2" d="M1543.6,668.3c37,0,74,0,110.9,0c0,47.6,0,95.1,0,142.6c-9.5,0-19.1,0-28.6,0c-1.3-23.9-9.7-47.4-24.4-66.4    c-14.6-18.9-34.9-33.6-57.7-40.7C1543.3,692,1543.7,680.1,1543.6,668.3z"/>
		<path class="st2" d="M1670.4,668.3c25.3,0,50.7,0,76,0c0,19,0,38,0,57.1c-25.4,0-50.7,0-76.1,0    C1670.4,706.3,1670.4,687.3,1670.4,668.3z"/>
		<path class="st2" d="M1762.3,668.3c42.7,0,85.4,0,128.2,0c-4,19.1-8.6,38-12.9,57.1c-38.4,0-76.8,0-115.2,0    C1762.3,706.3,1762.3,687.3,1762.3,668.3z"/>
		<path class="st2" d="M1036.4,686.3c12.7,0,25.3,0,38,0c0,20.4,0,40.9,0,61.3c17.2,0.1,34.5,0,51.8,0c0,13,0,26.1,0,39.1    c-29.9,0-59.9,0-89.8,0C1036.4,753.2,1036.4,719.7,1036.4,686.3z"/>
		<path class="st2" d="M1083.9,686.3c14.1,0,28.2,0,42.3,0c0,17.6,0,35.2,0,52.8c-14.1,0-28.2,0-42.2,0    C1083.9,721.5,1083.9,703.9,1083.9,686.3z"/>
		<path class="st2" d="M859.9,696.8c55.6,0,111.3,0,166.9,0c0,21.8,0,43.7,0,65.5c-55.7,0-111.3,0-166.9,0    C859.9,740.5,859.9,718.7,859.9,696.8z"/>
		<path class="st2" d="M173.1,710c20.7,3.9,41.3,8.2,62,11.9c0.6,2.8,0.3,5.8,0.2,8.7c-20.7-4-41.4-8.1-62.2-11.8V710z"/>
		<path class="st2" d="M698.2,719c18,0,35.9,0,53.9,0c0,23.6,0,47.2,0,70.8c-18,0-35.9,0-53.9,0C698.2,766.2,698.2,742.6,698.2,719z    "/>
		<path class="st2" d="M759.5,719c27.1,0,54.2,0,81.4,0c0,23.6,0,47.2,0,70.8c-27.1,0-54.2,0-81.3,0    C759.5,766.2,759.5,742.6,759.5,719z"/>
		<path class="st2" d="M1543.6,721.2c19.7,7.5,36.9,21.4,48.5,39.1c10,15,15.6,32.6,16.8,50.6c-21.8,0.3-43.6,0.1-65.3,0.1    C1543.6,781,1543.5,751.1,1543.6,721.2z"/>
		<path class="st2" d="M1424.2,727.5c10.9,0,21.8,0,32.7,0c0,6.3,0,12.7,0,19c-10.9,0-21.8,0-32.7,0    C1424.2,740.2,1424.2,733.8,1424.2,727.5z"/>
		<path class="st2" d="M173.1,732.3c20.1,3.3,40.2,6.5,60.2,9.9c0,55.7,0,111.4,0,167c-20.1,0-40.1,0-60.2,0V732.3z"/>
		<path class="st2" d="M1670.4,741.2c25.4,0,50.7,0,76.1,0c0,23.2,0,46.5,0,69.7c-25.3,0-50.7,0-76,0    C1670.4,787.7,1670.4,764.5,1670.4,741.2z"/>
		<path class="st2" d="M1762.3,741.2c37.1,0,74.3,0,111.4,0c-4.7,23.3-10.6,46.4-15.6,69.6c-31.9,0.3-63.9,0.1-95.9,0.1    C1762.3,787.7,1762.3,764.5,1762.3,741.2z"/>
		<path class="st2" d="M1424.2,758.1c10.9,0,21.8,0,32.7,0c0,7.9,0,15.9,0,23.8c-11-3.1-21.8-6.7-32.7-10.1    C1424.1,767.3,1424.2,762.7,1424.2,758.1z"/>
		<path class="st2" d="M1467.5,758.1c13,0,26,0,39.1,0c0,13.1,0,26.3,0,39.4c-13-3.9-26-8.2-39-12.1    C1467.4,776.4,1467.5,767.3,1467.5,758.1z"/>
		<path class="st2" d="M1190.6,768.7c13.4,0,26.8,0,40.2,0c0,22.9,0,45.8,0,68.7c-13.4,0-26.8,0-40.1,0    C1190.6,814.5,1190.7,791.6,1190.6,768.7z"/>
		<path class="st2" d="M1238.2,768.7c17.2,0,34.5,0,51.7,0c0,22.9,0,45.8,0,68.7c-17.3,0-34.5,0-51.8,0    C1238.2,814.5,1238.2,791.6,1238.2,768.7z"/>
		<path class="st2" d="M1359.9,769.8c17.4,5.8,35.3,10.7,52.5,16.7c0.3,33.8,0.1,67.7,0.1,101.5c-17.6,0-35.2,0-52.8,0    C1359.8,848.7,1359.5,809.2,1359.9,769.8z"/>
		<path class="st2" d="M859.9,777.2c45.6,0,91.2,0,136.8,0c-5.1,6.1-12.6,10-19.8,13.3c-13.4,5.6-27.4,9.5-40.6,15.4    c-16.6,7.9-29.5,21.7-39.5,36.8c-12.3,0.1-24.6,0-36.9,0C859.9,820.8,859.9,799,859.9,777.2z"/>
		<path class="st2" d="M1003.1,787.2c3.7-3.7,7.4-7.5,12.1-9.9c3.9-0.2,7.8,0,11.7-0.1c0,21.8,0,43.7,0,65.5    c-38.8,0-77.5,0.1-116.3,0c5.6-7.4,12.2-14.1,19.6-19.7c14-10.6,31.5-14.3,47.6-20.7C987,798.7,996,794.1,1003.1,787.2z"/>
		<path class="st2" d="M286.1,780.3c10.5,0.1,21-0.3,31.4,0.2c2.2,38.8,23.7,75.8,56.1,97.3c17.9,12.1,39,19.3,60.5,20.9    c0.1,10.9,0,21.8,0,32.7c-49.3,0-98.7,0-148,0C286.1,881,286.1,830.7,286.1,780.3z"/>
		<path class="st2" d="M568.6,780.4c10.5-0.3,20.9-0.1,31.4-0.1c0,13.8,0,27.5,0,41.3c-13.1,0.1-26.2,0-39.2,0    c-0.5-0.1-1.4-0.3-1.9-0.4C564.4,808.4,567.8,794.5,568.6,780.4z"/>
		<path class="st2" d="M1424.5,790c4.4,1.6,8.9,2.9,13.4,4.3c0.2,31.3,0,62.6,0.1,93.9c-4.6,0-9.2,0-13.8,0c0-31,0-62,0-93    C1424.2,793.4,1423.9,791.6,1424.5,790z"/>
		<path class="st2" d="M1445.3,796.9c4.6,0.7,9.1,2.7,13.7,3.9c22.2,6.9,44.4,13.9,66.6,20.8c0.1,22.2,0,44.3,0,66.5    c-26.8,0-53.5,0-80.3,0C1445.3,857.7,1445.3,827.3,1445.3,796.9z"/>
		<path class="st2" d="M1036.4,798.3c30.3,0,60.6,0,90.9,0c0,20.8,0,41.5,0,62.3c-30.3,0-60.6,0-90.9,0    C1036.4,839.8,1036.4,819.1,1036.4,798.3z"/>
		<path class="st2" d="M1543.6,826.8c37,0,74,0,110.9,0c0,16.6,0,33.1,0,49.7c-23.6,0-47.2,0-70.8,0c0-5.3,0-10.6,0-15.8    c-13.4,0-26.8,0-40.1,0C1543.6,849.3,1543.6,838.1,1543.6,826.8z"/>
		<path class="st2" d="M1670.4,826.8c25.4,0,50.7,0,76.1,0c0,20.4,0,40.9,0,61.3c-25.3,0-50.7,0-76.1,0    C1670.4,867.7,1670.4,847.2,1670.4,826.8z"/>
		<path class="st2" d="M1762.3,826.8c30.7,0,61.4,0,92,0c-4.5,20.4-9.3,40.8-13.9,61.2c-26,0.1-52.1,0-78.1,0    C1762.3,867.7,1762.3,847.2,1762.3,826.8z"/>
		<path class="st2" d="M549.5,839.6c3.3-0.6,7-0.6,10.3,0c7.8,7.1,15.6,14.4,25.1,19.3c4.6,2.7,10,1.6,15.1,1.8    c0.1,23.6,0,47.1,0,70.7c-49.3,0-98.7,0.1-148,0c0-10.9,0-21.8,0-32.7c19.2-1.5,38.2-7.3,54.7-17.3    C524,871.2,538.8,856.7,549.5,839.6z"/>
		<path class="st2" d="M574.6,839.3c8.5-0.2,16.9-0.1,25.4-0.1c0,4,0,8,0,12c-6.4,0.6-13.4-0.6-18.2-5.1    C579.3,843.8,576.3,842.1,574.6,839.3z"/>
		<path class="st2" d="M2035.2,890.5c3.7-15.4,7.2-30.9,11.3-46.2v48.6C2042.8,892.1,2039,891.3,2035.2,890.5z"/>
		<path class="st2" d="M614.8,858.5c39.4,0,78.9,0,118.3,0c0,12.3,0,24.6,0,37c-39.4,0-78.9,0-118.3,0    C614.7,883.2,614.8,870.9,614.8,858.5z"/>
		<path class="st2" d="M754.2,858.5c28.9,0,57.7,0,86.6,0c0,12.3,0,24.7,0,37c-28.9,0-57.8,0-86.6,0    C754.2,883.2,754.2,870.8,754.2,858.5z"/>
		<path class="st2" d="M859.9,858.5c22.2,0,44.4,0,66.5,0c0,12.3,0,24.7,0,37c-22.2,0-44.4,0-66.5,0    C859.9,883.2,859.9,870.8,859.9,858.5z"/>
		<path class="st2" d="M937.1,858.5c14.1,0,28.2,0,42.3,0c0,24.3,0,48.6,0,72.9c-14.1,0-28.2,0-42.3,0    C937,907.1,937,882.8,937.1,858.5z"/>
		<path class="st2" d="M988.8,858.5c12.7,0,25.3,0,38,0c0,24.3,0,48.6,0,72.9c-12.7,0-25.4,0-38,0    C988.8,907.1,988.8,882.8,988.8,858.5z"/>
		<path class="st2" d="M1862.9,865.9c44,10.6,87.9,22.1,131.9,33c0,9,0.2,18.1-0.1,27.1c-45.7-11.8-91.5-23-137.2-34.7    C1858.3,882.8,1861.3,874.4,1862.9,865.9z"/>
		<path class="st2" d="M1036.4,869.1c30.3,0,60.6,0,90.8,0c0,20.8,0,41.6,0,62.3c-30.3,0-60.6,0-90.9,0    C1036.4,910.6,1036.4,889.9,1036.4,869.1z"/>
		<path class="st2" d="M1543.6,870.2c10.2,0,20.4,0,30.6,0c0,10.2,0,20.4,0,30.6c-10.2,0-20.4,0-30.6,0    C1543.6,890.6,1543.6,880.3,1543.6,870.2z"/>
		<path class="st2" d="M1583.8,888.1c23.6,0,47.2,0,70.8,0c0,14.8,0,29.6,0,44.4c-37,0-74,0-110.9,0c0-7.4,0-14.8,0-22.2    c13.4,0,26.7,0,40.1,0C1583.8,902.9,1583.7,895.5,1583.8,888.1z"/>
		<path class="st2" d="M1190.7,896.6c8.8,0,17.6,0,26.4,0c0,12,0,23.9,0,35.9c-8.8,0-17.6,0-26.4,0    C1190.6,920.5,1190.6,908.5,1190.7,896.6z"/>
		<path class="st2" d="M1224.5,896.5c8.8,0,17.6,0,26.4,0c0,12,0,23.9,0,35.9c-8.8,0-17.6,0-26.4,0    C1224.5,920.5,1224.4,908.5,1224.5,896.5z"/>
		<path class="st2" d="M1258.3,896.5c28.2,0,56.3,0,84.5,0c0,12,0,23.9,0,35.9c-28.2,0-56.3,0-84.5,0    C1258.3,920.5,1258.3,908.5,1258.3,896.5z"/>
		<path class="st2" d="M1359.7,896.6c17.6,0,35.2,0,52.8,0c-0.1,20.3,0.1,40.5-0.1,60.8c-5-8.3-14-13.1-23.2-15.2c0-3.2,0-6.4,0-9.7    c-9.9,0-19.7,0-29.6,0C1359.7,920.5,1359.7,908.5,1359.7,896.6z"/>
		<path class="st2" d="M1424.2,896.6c33.8,0,67.6,0,101.4,0c0,12,0,24,0,35.9c-15.5,0-31,0-46.5,0c0,9.9,0,19.7,0,29.6    c-18.3,0-36.6,0-54.9,0C1424.2,940.2,1424.2,918.4,1424.2,896.6z"/>
		<path class="st2" d="M2011.8,903.1c11.5,2.6,23.1,5.5,34.7,7.5v46.1c-12-0.4-23.9-0.6-35.9-1    C2011.1,938.2,2011.1,920.6,2011.8,903.1z"/>
		<path class="st2" d="M614.8,905c39.5,0,79.1,0,118.6,0c0,8.8,0.1,17.6,0,26.4c-39.5,0-79.1,0-118.6,0    C614.8,922.6,614.7,913.8,614.8,905z"/>
		<path class="st2" d="M754.2,905c57.4,0,114.8,0,172.2,0c0,8.8,0,17.6,0,26.4c-57.4,0-114.8,0-172.2,0    C754.2,922.6,754.2,913.8,754.2,905z"/>
		<path class="st2" d="M1670.4,905c25.3,0,50.7,0,76.1,0c0,21.1,0,42.3,0,63.4c-25.4,0-50.7,0-76.1,0    C1670.4,947.3,1670.4,926.1,1670.4,905z"/>
		<path class="st2" d="M1762.3,905c24.7,0,49.4,0,74.2,0c-4.6,21.1-9.7,42-14.2,63.1c-19.9,0.6-39.9,0.1-59.9,0.2    C1762.3,947.3,1762.3,926.1,1762.3,905z"/>
		<path class="st2" d="M1853.3,906.8c3.5-0.2,7,1.6,10.5,2.2c43.6,11,87.3,21.9,130.9,33c0.1,10.6,0.1,21.1,0,31.7    c-49.3-12.4-98.5-24.9-147.9-37.2c-0.7-1.5,0.3-3.1,0.5-4.7C1849.4,923.5,1851.4,915.2,1853.3,906.8z"/>
		<path class="st2" d="M173.1,918.7c4.6,0,9.2,0,13.7,0c0,26.4,0,52.8,0,79.2h-13.7V918.7z"/>
		<path class="st2" d="M197.4,918.7c12,0,23.9,0,35.9,0c-0.3,15.4-0.1,31.6,7.2,45.7c3.7,7.7,10.8,13.1,18.6,16.4    c4.9,1.9,10,4,15.4,3.6c6.4-0.3,12.7-0.1,19.1-0.1c0,4.6,0,9.2,0,13.7h-96.2C197.4,971.6,197.4,945.2,197.4,918.7z"/>
		<path class="st2" d="M1486.5,939.9c13,0,26.1,0,39.1,0c0,7.4,0,14.8,0,22.2c-13,0-26,0-39.1,0    C1486.5,954.7,1486.5,947.3,1486.5,939.9z"/>
		<path class="st2" d="M1543.6,943.1c37,0,74,0,110.9,0c0,18.3,0,36.6,0,54.9h-111C1543.6,979.7,1543.6,961.4,1543.6,943.1z"/>
		<path class="st2" d="M1842.1,954.8c0.1-1.4,1.1-2.7,2.7-2.1c11.5,2.9,23.1,5.9,34.7,8.7c-2.8,12.2-5.4,24.4-7.5,36.7h-40    C1835.3,983.6,1838.7,969.2,1842.1,954.8z"/>
		<path class="st2" d="M1894.3,965.3c8.3,1.5,16.4,4,24.7,5.9c25.2,6.4,50.6,12.6,75.7,19.2c0,2.5,0.1,5,0.1,7.5h-106.9    C1890.1,987.1,1892.1,976.2,1894.3,965.3z"/>
		<path class="st2" d="M2010.6,965.2c12,0,23.9,0,35.9,0V998h-35.9C2010.6,987.1,2010.6,976.1,2010.6,965.2z"/>
		<path class="st2" d="M1418.8,969.5c20.1,0,40.2,0,60.3,0c0,9.5,0,19,0,28.5h-51.7C1426.9,988,1423.9,978.1,1418.8,969.5z"/>
		<path class="st2" d="M1486.5,969.5c13,0,26.1,0,39.1,0c0,9.5,0,19,0,28.5h-39.1C1486.5,988.5,1486.5,979,1486.5,969.5z"/>
		<path class="st2" d="M310.4,984.3c16.2,0,32.4,0,48.6,0c0,4.6,0,9.2,0,13.7h-48.6C310.4,993.4,310.4,988.8,310.4,984.3z"/>
		<path class="st2" d="M368.6,984.3c24.7,0.1,49.4,0,74.2,0c0.1,4.6,0.1,9.1,0,13.7h-74.2C368.6,993.4,368.5,988.9,368.6,984.3z"/>
		<path class="st2" d="M452,984.3c3.9,0,7.7,0,11.6,0c0,4.6,0,9.1,0,13.7H452C452,993.4,452,988.8,452,984.3z"/>
		<path class="st2" d="M472.1,984.3c18.3,0,36.6,0,54.9,0c0,4.6,0,9.1,0,13.7h-54.9C472.1,993.4,472.1,988.8,472.1,984.3z"/>
		<path class="st2" d="M536.6,984.3c24.6,0,49.3,0,73.9,0c0,4.6,0,9.2,0,13.7h-74C536.6,993.4,536.5,988.8,536.6,984.3z"/>
		<path class="st2" d="M620,984.3c17.6,0,35.2,0,52.8,0c0.1,4.6,0,9.2,0,13.7H620C620,993.4,620,988.8,620,984.3z"/>
		<path class="st2" d="M682.4,984.3c33.5,0,66.9,0,100.4,0c0,4.6,0,9.2,0,13.7H682.4C682.4,993.4,682.4,988.8,682.4,984.3z"/>
		<path class="st2" d="M806,984.3c57.1,0,114.1,0,171.2,0c0,4.6,0,9.1,0,13.7H806C806,993.4,806,988.8,806,984.3z"/>
		<path class="st2" d="M988.8,984.3c14.4,0,28.9,0,43.3,0c0,4.6,0,9.1,0,13.7h-43.3C988.8,993.4,988.8,988.8,988.8,984.3z"/>
		<path class="st2" d="M1041.7,984.3c29.6,0,59.2,0,88.8,0c0,4.6,0,9.2,0,13.7h-88.8C1041.7,993.4,1041.6,988.8,1041.7,984.3z"/>
		<path class="st2" d="M1150.5,984.3c16.9,0,33.8,0,50.7,0c0,4.6,0,9.2,0,13.7h-50.7C1150.5,993.4,1150.5,988.8,1150.5,984.3z"/>
		<path class="st2" d="M1210.7,984.3c31.3,0,62.7,0,94,0c0,4.6,0,9.2,0,13.7h-94.1C1210.7,993.4,1210.7,988.8,1210.7,984.3z"/>
		<path class="st2" d="M1316.4,984.3c14.1,0,28.2,0,42.3,0c7.6-0.1,14.1,6.3,14.8,13.7h-57.1    C1316.4,993.4,1316.4,988.8,1316.4,984.3z"/>
		<path class="st2" d="M1670.4,985.3c49.3,0,98.5,0,147.8,0c-0.9,4-1.8,7.9-2.8,11.9l0.8,0.8h-145.8    C1670.4,993.8,1670.4,989.5,1670.4,985.3z"/>
	</g>
	<g id="_x23_3b82f6ff">
		<path class="st3" d="M198.4,98.8h2.1c0,7.7,0,15.5,0,23.2c-9.2,0-18.3,0-27.5,0v-2.1c8.5,0,16.9,0,25.4,0    C198.4,112.8,198.4,105.8,198.4,98.8z"/>
		<path class="st3" d="M207.9,98.8h2.1c0.1,7,0,14.1,0,21.1c25,0,50,0,75,0c0-7,0-14.1,0-21.1h2.1c0,7.7,0,15.5,0,23.2    c-26.4,0-52.8,0-79.2,0C207.9,114.2,207.9,106.5,207.9,98.8z"/>
		<path class="st3" d="M291.4,98.8h2.1c0,36.6,0,73.3,0,109.9c25,0,50,0,75,0c0-36.6,0-73.3,0-109.9h2.1c0,37.3,0,74.7,0,112    c-26.4,0-52.8,0-79.3,0C291.4,173.4,291.4,136.1,291.4,98.8z"/>
		<path class="st3" d="M389.7,98.8h2.1c0,32,0,64.1,0,96.1c19.7,0,39.4,0,59.2,0c0-32,0-64.1,0-96.1h2.1c0,32.8,0,65.5,0,98.3    c-21.1,0-42.3,0-63.4,0C389.7,164.3,389.7,131.5,389.7,98.8z"/>
		<path class="st3" d="M458.4,98.8h2.1c0,34.9,0,69.7,0,104.6c-13,0-26.1,0-39.1,0c0,16.9,0,33.8,0,50.7c18,0,35.9,0,53.9,0    c0-51.8,0-103.5,0-155.3h2.1c0,52.5,0,104.9,0,157.4c-19.4,0-38.7,0-58.1,0c0-18.3,0-36.6,0-54.9c13,0,26.1,0,39.1,0    C458.4,167.1,458.4,132.9,458.4,98.8z"/>
		<path class="st3" d="M593.6,98.8h2.1c0,16.2,0,32.4,0,48.6c13.7,0,27.5,0,41.2,0c0-16.2,0-32.4,0-48.6h2.1c0,16.9,0,33.8,0,50.7    c-15.1,0-30.3,0-45.4,0C593.6,132.6,593.6,115.7,593.6,98.8z"/>
		<path class="st3" d="M1202.3,98.8h2.1c0.1,13.7,0,27.5,0,41.2c9.8,0,19.7,0,29.6,0c0-13.7,0-27.5,0-41.2h2.1    c0,14.4-0.1,28.9,0,43.3c-11.3,0-22.6,0-33.9,0C1202.3,127.6,1202.3,113.2,1202.3,98.8z"/>
		<path class="st3" d="M1242.4,98.8h2.1c0,13.7,0,27.5,0,41.2c34.2,0,68.3,0,102.5,0c0-4.6,0-9.1,0-13.7c-5.6,0-11.3,0-16.9,0    c0-4.6,0-9.1,0-13.7c5.6,0,11.3,0,16.9,0c0-4.6,0-9.2,0-13.7h2.1c0,5.3,0,10.6,0,15.9c-5.6,0-11.3,0-16.9,0c0,3.2,0,6.3,0,9.5    c5.6,0,11.3,0,16.9,0c0,6,0,12,0,17.9c-35.6,0-71.1,0-106.7,0C1242.4,127.6,1242.4,113.2,1242.4,98.8z"/>
		<path class="st3" d="M1352.3,98.8h2.1c0,4.6,0,9.2,0,13.7c5.3,0,10.6,0,15.9,0c0,4.6,0,9.1,0,13.7c-5.3,0-10.6,0-15.9,0    c0,4.6,0,9.2,0,13.7c10.9,0,21.8,0,32.7,0c0-13.7,0-27.5,0-41.2h2.1c0,14.4,0,28.9,0,43.3c-12.3,0-24.7,0-37,0c0-6,0-12,0-18    c5.3,0,10.6,0,15.8,0c0-3.2,0-6.3,0-9.5c-5.3,0-10.6,0-15.8,0C1352.3,109.3,1352.3,104,1352.3,98.8z"/>
		<path class="st3" d="M1393.5,98.8h2.1c0,13.7,0,27.5,0,41.2c6,0,12,0,17.9,0c0-13.7,0-27.5,0-41.2h2.1c0,14.4,0,28.9,0,43.3    c-7.4,0-14.8,0-22.2,0C1393.5,127.6,1393.5,113.2,1393.5,98.8z"/>
		<path class="st3" d="M1505.5,98.8h2.1c0,13.7,0,27.5,0,41.2c9.5,0,19,0,28.5,0c0-13.7,0-27.5,0-41.2h2.1c0,14.4,0,28.9,0,43.3    c-10.9,0-21.8,0-32.7,0C1505.5,127.6,1505.5,113.2,1505.5,98.8z"/>
		<path class="st3" d="M1558.4,98.8h2.1c0,6,0,12,0,18c18,0,35.9,0,53.9,0c0-6,0-12,0-18h2.1c0,6.7,0,13.4,0,20.1    c-19.4,0-38.7,0-58.1,0C1558.4,112.1,1558.4,105.4,1558.4,98.8z"/>
		<path class="st3" d="M1666.2,98.8h2.1c0,6,0,12,0,18c9.8,0,19.7,0,29.6,0c0-6,0-12,0-17.9h2.1c0,6.7,0,13.4,0,20.1    c-11.3,0-22.5,0-33.8,0C1666.1,112.1,1666.2,105.4,1666.2,98.8z"/>
		<path class="st3" d="M1457,119.9c14.8,0,29.6,0,44.3,0c0,7.4,0,14.8,0,22.2c-14.8,0-29.6,0-44.4,0    C1456.9,134.7,1456.9,127.3,1457,119.9 M1459.1,122c0,6,0,12,0,18c13.4,0,26.8,0,40.2,0c0-6,0-12,0-17.9    C1485.8,122,1472.4,122,1459.1,122z"/>
		<path class="st3" d="M1558.4,123.1c19.4,0,38.7,0,58.1,0c0,6.3,0,12.7,0,19c-19.4,0-38.7,0-58.1,0    C1558.4,135.7,1558.4,129.4,1558.4,123.1 M1560.5,125.2c0,4.9,0,9.8,0,14.8c18,0,35.9,0,53.9,0c0-4.9,0-9.8,0-14.8    C1596.4,125.2,1578.4,125.2,1560.5,125.2z"/>
		<path class="st3" d="M1666.2,123.1c11.3,0,22.5,0,33.8,0c0,6.3,0,12.7,0,19c-11.3,0-22.5,0-33.8,0    C1666.1,135.7,1666.2,129.4,1666.2,123.1 M1668.3,125.2c0,4.9,0,9.8,0,14.8c9.8,0,19.7,0,29.6,0c0-4.9,0-9.9,0-14.8    C1688,125.2,1678.1,125.2,1668.3,125.2z"/>
		<path class="st3" d="M173.1,128.3c38,0,76.1,0,114.1,0c0,13.7,0,27.5,0,41.2c-38,0.1-76.1,0-114.1,0v-2.1c37.3,0,74.7,0,112,0    c0-12.3,0-24.7,0-37c-37.3,0-74.7,0-112,0V128.3z"/>
		<path class="st3" d="M173.1,175.9c9.2,0,18.3,0,27.5,0c0,11.3,0,22.5,0,33.8c-9.2,0-18.3,0-27.5,0v-2.1c8.5,0,16.9,0,25.3,0    c0-9.9,0-19.7,0-29.6c-8.4,0-16.9,0-25.3,0V175.9z"/>
		<path class="st3" d="M207.9,175.9c26.4,0,52.8,0,79.2,0c0,11.3,0,22.5,0,33.8c-26.4,0-52.8,0-79.2,0    C207.9,198.4,207.9,187.2,207.9,175.9 M210.1,178c0,9.9,0,19.7,0,29.6c25,0,50,0,75,0c0-9.9,0-19.7,0-29.6    C260.1,178,235.1,178,210.1,178z"/>
		<path class="st3" d="M1415.7,196c23.2,0,46.5,0,69.7,0c0,25.7,0,51.4,0,77.1c-23.2,0-46.5,0-69.7,0    C1415.7,247.4,1415.7,221.7,1415.7,196 M1417.8,198.1c0,24.3,0,48.6,0,72.9c21.8,0,43.7,0,65.5,0c0-24.3,0-48.6,0-72.9    C1461.5,198.1,1439.7,198.1,1417.8,198.1z"/>
		<path class="st3" d="M1497.1,196c54.6,0,109.2,0,163.8,0c0,13.4,0,26.8,0,40.1c-54.6,0-109.2,0-163.8,0    C1497.1,222.7,1497.1,209.4,1497.1,196 M1499.2,198.1c0,12,0,23.9,0,35.9c53.2,0,106.4,0,159.5,0c0-12,0-23.9,0-35.9    C1605.6,198.1,1552.4,198.1,1499.2,198.1z"/>
		<path class="st3" d="M1670.4,196c12,0,23.9,0,35.9,0c0,13.4,0,26.8,0,40.1c-12,0.1-23.9,0-35.9,0    C1670.4,222.7,1670.4,209.4,1670.4,196 M1672.5,198.1c0,12,0,23.9,0,35.9c10.6,0,21.1,0,31.7,0c0-12,0-23.9,0-35.9    C1693.6,198.1,1683.1,198.1,1672.5,198.1z"/>
		<path class="st3" d="M1710.5,196c12,0,23.9,0,35.9,0c0,13.4,0,26.8,0,40.1c-12,0-23.9,0-35.9,0    C1710.5,222.7,1710.5,209.4,1710.5,196 M1712.6,198.1c0,12,0,23.9,0,35.9c10.6,0,21.1,0,31.7,0c0-12,0-23.9,0-35.9    C1733.8,198.1,1723.2,198.1,1712.6,198.1z"/>
		<path class="st3" d="M1749.6,196c29.2,0,58.5,0,87.7,0c0,13.4,0,26.8,0,40.1c-29.2,0-58.5,0-87.7,0    C1749.6,222.7,1749.6,209.4,1749.6,196 M1751.8,198.1c0,12,0,23.9,0,35.9c27.8,0,55.7,0,83.5,0c0-12,0-23.9,0-35.9    C1807.4,198.1,1779.6,198.1,1751.8,198.1z"/>
		<path class="st3" d="M1841.6,196c19.8,0,39.6,0,59.4,0c6.3,0,11.4,5.1,11.4,11.3c0,9.6,0,19.2,0,28.8c-23.6,0-47.2,0-70.8,0    C1841.5,222.7,1841.6,209.4,1841.6,196 M1843.7,198.1c0,12,0,23.9,0,35.9h66.5c0-8.6,0-17.2,0-25.7c0-5.6-4.6-10.2-10.2-10.2    C1881.2,198.1,1862.5,198.1,1843.7,198.1z"/>
		<path class="st3" d="M389.7,201.3c8.5,0,16.9,0,25.3,0c0,18.3,0,36.6,0,54.9c-8.5,0-16.9,0-25.3,0    C389.7,237.9,389.7,219.6,389.7,201.3 M391.8,203.4c0,16.9,0,33.8,0,50.7c7,0,14.1,0,21.1,0c0-16.9,0-33.8,0-50.7    C405.9,203.3,398.8,203.4,391.8,203.4z"/>
		<path class="st3" d="M173.1,215c21.8,0,43.7,0,65.5,0c0,13.7,0,27.5,0,41.2c-21.8,0.1-43.7,0-65.5,0v-2.1c21.1,0,42.3,0,63.4,0    c0.1-12.3,0-24.6,0-37c-21.1,0-42.3,0-63.4,0V215z"/>
		<path class="st3" d="M246,215c13.7,0,27.5,0,41.2,0c0,13.7,0,27.5,0,41.2c-13.7,0-27.5,0-41.2,0C246,242.5,246,228.7,246,215     M248.1,217.1c0,12.3,0,24.6,0,37c12.3,0,24.7,0,37,0c0-12.3,0-24.7,0-37C272.7,217.1,260.4,217.1,248.1,217.1z"/>
		<path class="st3" d="M291.4,215c12.7,0,25.3,0,38,0c0,13.7,0,27.5,0,41.2c-12.7,0-25.3,0-38,0C291.4,242.5,291.4,228.7,291.4,215     M293.5,217.1c0,12.3,0,24.7,0,37c11.3,0,22.5,0,33.8,0c0-12.3,0-24.7,0-37C316.1,217.1,304.8,217.1,293.5,217.1z"/>
		<path class="st3" d="M332.6,215c12.7,0,25.4,0,38,0c0,13.7,0,27.5,0,41.2c-12.7,0-25.3,0-38,0C332.6,242.5,332.6,228.7,332.6,215     M334.7,217.1c0,12.3,0,24.6,0,37c11.3,0,22.5,0,33.8,0c0-12.3,0-24.6,0-37C357.3,217.1,346,217.1,334.7,217.1z"/>
		<path class="st3" d="M1963.1,219.2c27.8,0,55.7,0,83.5,0v2.1c-27.1,0-54.2,0-81.4,0c0,79.9,0,159.9,0,239.9c27.1,0,54.2,0,81.4,0    v2.1c-27.8,0-55.6,0-83.5,0C1963.1,381.9,1963.1,300.6,1963.1,219.2z"/>
		<path class="st3" d="M1497.1,240.4c81.4,0,162.8,0,244.2,0c-4.2,27.1-8.5,54.2-12.7,81.3c-17.3,0.1-34.6,0-51.8,0    c-0.1-9.7-6-19.2-15-23.1c-5.2-2.5-11.1-2.3-16.8-2.3c-20.8,0-41.6,0-62.4,0c-4.3-0.1-8.6,0.4-12.5,2.3c-9,3.9-14.9,13.4-15,23.1    c-19.3,0-38.7,0-58,0C1497.1,294.6,1497.1,267.5,1497.1,240.4 M1499.2,242.5c0,25.7,0,51.4,0,77.1c18,0,35.9,0,53.9,0    c0.8-9.5,6.8-18.5,15.5-22.6c4.7-2.4,10-3,15.2-2.8c21.5,0,43,0,64.5,0c4.9-0.2,10,0.3,14.5,2.5c9,4,15.3,13.1,16.1,22.9    c16.1-0.1,32.2,0.4,48.2-0.3c3.8-25.6,7.9-51.2,12-76.7C1659,242.3,1579.1,242.5,1499.2,242.5z"/>
		<path class="st3" d="M1753.8,240.4c52.8-0.1,105.7,0,158.5,0c0,58.8,0.1,117.7,0,176.5c-0.4,0-1.3-0.1-1.8-0.2    c-15.5-16.1-32.5-30.7-51.1-43.1c-13.7-8.7-28.8-17.1-45.4-17.2c-16.6-0.8-33.5-0.8-49.7,3.5c-10.7,2.7-20.8,7.1-30.7,11.7    C1740.1,327.9,1747.4,284.2,1753.8,240.4 M1755.9,242.5c-6.6,41.8-13.1,83.7-19.7,125.5c10.2-4.4,20.5-8.6,31.4-11    c16.9-3.9,34.5-3.3,51.7-2.4c15.2,1.8,29,9.3,41.7,17.5c17.9,11.7,33.9,26,49.1,40.9c0.2-56.8,0-113.6,0.1-170.5    C1858.8,242.4,1807.3,242.5,1755.9,242.5z"/>
		<path class="st3" d="M181.5,266.8c29.2,0,58.4,0,87.6,0c1.8,0,3.7,0,5.4,0.5c-12.4,2.1-25.7,8-31.3,20    c-4.6,11.2-4.4,23.6-3.6,35.5c-19.4,0-38.8,0-58.1,0C181.5,304.1,181.5,285.4,181.5,266.8 M183.6,268.9c0,17.2,0,34.5,0,51.7    c17.9,0,35.9,0.1,53.8,0c-0.7-10.2-0.5-20.6,2.5-30.4c1.7-5.9,5.4-11.2,10.3-14.9c2.9-2.7,6.7-4.1,9.9-6.3    C234.6,268.7,209.1,268.9,183.6,268.9z"/>
		<path class="st3" d="M384.4,305.9c54.9,0,109.9,0,164.8,0c0,12.3,0,24.7,0,37c-54.9,0-109.9,0-164.8,0    C384.4,330.5,384.4,318.2,384.4,305.9 M386.5,308c0,10.9,0,21.8,0,32.7c53.5,0,107.1,0,160.6,0c0-10.9,0-21.8,0-32.7    C493.6,308,440.1,308,386.5,308z"/>
		<path class="st3" d="M554.5,305.9c17.6,0,35.2,0,52.8,0c0,12.3,0,24.7,0,37c-17.6,0-35.2,0-52.8,0    C554.5,330.5,554.5,318.2,554.5,305.9 M556.6,308c0,10.9,0,21.8,0,32.7c16.2,0,32.4,0,48.6,0c0-10.9,0-21.8,0-32.7    C589,308,572.8,308,556.6,308z"/>
		<path class="st3" d="M1497.1,328.1c19.7-0.1,39.4,0,59.1,0c-0.1,7.3,5.3,13.6,11.2,17.4c5.5,3.6,12.1,4,18.5,3.7    c20.8,0,41.6,0,62.4,0c6.4,0.3,13-1,18.2-5c4.9-3.8,9.5-9.6,9.3-16.1c17.3,0,34.6,0,51.9,0c-2.3,14.8-4.6,29.5-6.9,44.2    c-0.4,2.4-0.5,5.1-2.1,7.1c-41.7,23.9-90.4,32.7-138,32.9c-14.5,0-28.9-0.9-43.3-2.6c-13.3-1.2-26.6-1.8-39.9-1.8    C1496.7,381.4,1497.3,354.7,1497.1,328.1 M1499.2,330.2c0.1,25.2-0.3,50.5,0.2,75.8c12.6,0,25.3,0.6,37.9,1.7    c16.1,1.9,32.3,2.8,48.5,2.5c45.6-0.8,92-9.8,131.8-32.6c1.4-8.1,2.6-16.2,3.9-24.3c0.9-7.7,3.1-15.3,2.7-23.1    c-15.4,0-30.8-0.1-46.3,0.1c-2.6,11.7-13.7,20.8-25.6,21c-24.3,0.1-48.6,0.1-72.9,0c-12-0.3-23-9.3-25.6-21    C1535.7,330,1517.4,330.2,1499.2,330.2z"/>
		<path class="st3" d="M173.1,330.2c21.8,0,43.7,0,65.5,0c0,12.3,0,24.7,0,37c-21.8,0-43.7,0-65.5,0V365c21.1,0,42.3,0,63.4,0    c0-10.9,0-21.8,0-32.8c-21.1,0-42.3,0-63.4,0V330.2z"/>
		<path class="st3" d="M1012.1,355.5c18.7,0,37.3,0,56,0c0.7,42.1,1.5,84.3,2.1,126.4c-6.7-7.9-12.6-16.7-18.9-24.9    c-13-17.4-25.9-34.7-38.9-52.1c-0.5-1.6-0.2-3.3-0.3-5C1012.1,385.2,1012,370.3,1012.1,355.5 M1014.2,357.7    c0.1,15.4-0.3,30.9,0.2,46.4c16.9,22.8,34,45.5,50.9,68.3c0.8,1,1.4,2.4,2.7,3c-0.6-39.2-1.3-78.4-2-117.6    C1048.7,357.6,1031.4,357.6,1014.2,357.7z"/>
		<path class="st3" d="M765.6,383.8c12.6-11.5,29.9-16.5,46.7-17.6c7.8-0.1,15.6-0.1,23.4,0c2.2,0,1.3,2.9,2.3,4.1    c8.4,21.1,16.6,42.3,25.1,63.4c0.3,1.2,1.8,2.7,0.8,4c-26,0.3-51.9,0.3-77.9-1c-9.5-0.6-19-1-28.3-3.3    c-11.4-2.7-22.2-7.9-31.8-14.7c-0.9-0.6-1.8-1.4-2-2.5c2.5-0.8,5.1-0.5,7.7-1.2c8.3-2,15.1-7.8,20.5-14.1    C756.8,395.4,760,388.6,765.6,383.8 M800.1,369.9c-15.5,3.1-31.4,10.3-40.3,24.1c-7.2,10.9-17.2,21.7-30.8,23.8l0.2,0.8    c12.7,8.6,27.6,13.9,43,15c29.5,2.4,59.1,2.1,88.6,2c0.3-2.5-1.5-4.7-2.2-7.1c-8-20.1-15.7-40.4-24-60.3    C823.1,368.5,811.4,367.3,800.1,369.9z"/>
		<path class="st3" d="M1751.7,379.9c19.4-6.3,39.5-13.2,60.1-10.9c19.1,2,36.3,11.6,51.5,22.9c17.5,13,32.9,28.4,48.3,43.8    c1.1,2.4,0.7,5,0.8,7.6c0.1,10.3-0.8,20.8,2.3,30.8c2.9,10,8.1,20.1,16.9,26.2c-1.1,7.5-3.6,14.7-5.1,22.2    c-10.4,43.6-20.2,87.4-30.1,131.1c-75.6,0.2-151.3,0.1-227,0.1c0-80.3,0-160.5,0-240.8c2.8-0.1,5.2-1.8,7.8-2.8    C1701.6,398.9,1726.4,388.6,1751.7,379.9 M1773.7,375.3c-32.7,9.2-64,22.5-95,36.1c-2.5,1.1-5.2,1.9-7.3,3.5    c0,78.8,0,157.6,0,236.4c74.3,0,148.7,0.1,223,0c9.7-41.9,19.3-83.8,28.7-125.8c2.4-7.9,4.1-16,6.1-24    c-11.1-9.5-17.4-23.7-18.7-38.1c-0.9-8.7,0.5-17.6-0.7-26.2c-13.2-14.3-27.4-27.6-42.5-39.8c-14.8-11.6-31.2-22.1-50-25.6    C1802.8,369,1787.8,371.4,1773.7,375.3z"/>
		<path class="st3" d="M1356.5,423.2c28.5-3.1,57.2-4.2,85.9-4.2c-3.8,4.1-8.7,7.1-12.9,10.7c-23.9,19-47.9,37.8-71.8,56.9    C1357,465.4,1357,444.3,1356.5,423.2 M1359,424.9c-0.7,2.9-0.1,5.9-0.2,8.8c0.4,16.2,0.3,32.4,1,48.5c22.3-17.8,44.7-35.4,67-53.1    c3.1-2.7,6.9-4.9,9.6-8C1410.6,421.1,1384.7,422.5,1359,424.9z"/>
		<path class="st3" d="M1133.6,433.6c15.7-0.7,31.8,0.7,46.7,6.1c9.1,3.5,17.7,9,23.3,17.2c8.2,11.9,19.6,22,33.4,26.8    c0,0.3-0.1,1-0.2,1.3c-13,8.5-28.7,11.8-43.9,13.8c-19.7,2.6-39.5,0.7-59.3,0.3C1133.6,477.4,1133.6,455.5,1133.6,433.6     M1135.7,435.6c0,20.5,0,41,0,61.5c16.2,0.4,32.5,1.9,48.7,0.5c16.6-1.4,33.5-4.3,48.3-12.4l0.2-0.8    c-12.9-5.4-23.5-15.3-31.4-26.7c-4.8-7-12-11.9-19.7-15.1C1167.3,436.6,1151.3,435.3,1135.7,435.6z"/>
		<path class="st3" d="M778.6,448.5c35.2,0,70.4,0,105.6,0c0,50.4,0,100.7,0,151.1c-16.6,0-33.1,0-49.7,0c0-39.1,0-78.2,0-117.3    c-1.4,0-2.8,0-4.2,0c0,39.1,0,78.2,0,117.3c-17.3,0-34.5,0-51.8,0C778.5,549.2,778.5,498.9,778.6,448.5 M780.7,450.6    c0,49,0,97.9,0,146.9c15.8,0,31.7,0,47.5,0c0-39.1,0-78.2,0-117.3c2.8,0,5.6,0,8.5,0c0,39.1,0,78.2,0,117.3c15.1,0,30.3,0,45.4,0    c0-49,0-97.9,0-146.9C848.3,450.6,814.5,450.6,780.7,450.6z"/>
		<path class="st3" d="M285.1,471.8c31.4,0,62.7,0,94,0c0,10.6,0,21.1,0,31.7c-31.3,0.1-62.7,0-94,0    C285,492.9,285.1,482.3,285.1,471.8 M287.2,473.9c0,9.2,0,18.3,0,27.5c29.9,0,59.9,0,89.8,0c0-9.2,0-18.3,0-27.5    C347.1,473.9,317.1,473.9,287.2,473.9z"/>
		<path class="st3" d="M547.8,474.9c18.1,0,36.2,0,54.3,0c0,11.7,0,23.4,0,35.1c-15.1-3.6-30.2-7.3-45.2-11    C553.9,491,550.7,483,547.8,474.9 M550.9,477.1c2.4,6.8,4.8,13.8,7.9,20.2c13.7,3.5,27.4,6.9,41.2,10c0-10.1,0-20.2,0-30.2    C583.6,477.1,567.3,477,550.9,477.1z"/>
		<path class="st3" d="M1076.5,508.8c39.8,0,79.6,0,119.4,0c0,6,0,12,0,18c-39.8,0-79.6,0-119.4,0    C1076.5,520.7,1076.5,514.7,1076.5,508.8 M1078.6,510.9c0,4.6,0,9.1,0,13.7c38.4,0,76.8,0,115.2,0c0-4.6,0-9.2,0-13.7    C1155.4,510.8,1117,510.8,1078.6,510.9z"/>
		<path class="st3" d="M564.8,516.5c-0.5-0.9-2.3-1.8-1.3-3c12.8,3.3,25.6,6.1,38.5,9.1c0.1,13.5,0.1,27,0,40.5    C589.3,547.9,577.3,532,564.8,516.5 M568.2,517.2c10.1,13.2,20.7,26.1,30.9,39.3l0.9,0.5c0-10.8,0-21.7,0-32.5    C589.4,522,578.9,519.1,568.2,517.2z"/>
		<path class="st3" d="M1043.8,529.9c7.4,0,14.8,0,22.2,0c0,23.2,0,46.5,0,69.7c-7.4,0-14.8,0-22.2,0    C1043.8,576.4,1043.8,553.1,1043.8,529.9 M1045.9,532c0,21.8,0,43.7,0,65.5c6,0,12,0,18,0c0-21.8,0-43.7,0-65.5    C1057.8,532,1051.9,532,1045.9,532z"/>
		<path class="st3" d="M1069.1,529.9c20.1,0,40.1,0,60.2,0c0,23.2,0,46.5,0,69.7c-20.1,0-40.1,0-60.2,0    C1069.1,576.4,1069.1,553.1,1069.1,529.9 M1071.3,532c0,21.8,0,43.7,0,65.5c18.7,0,37.3,0,56,0c0-21.8,0-43.7,0-65.5    C1108.6,532,1089.9,532,1071.3,532z"/>
		<path class="st3" d="M1133.6,529.9c20.8,0,41.6,0,62.3,0c0,23.2,0,46.5,0,69.7c-20.8,0-41.6,0-62.3,0    C1133.6,576.4,1133.6,553.1,1133.6,529.9 M1135.7,532c0,21.8,0,43.7,0,65.5c19.4,0,38.7,0,58.1,0c0-21.8,0-43.7,0-65.5    C1174.4,532,1155.1,532,1135.7,532z"/>
		<path class="st3" d="M1314.3,535.2c9.9,0,19.7,0,29.6,0c0,39.4,0,78.9,0,118.3c-9.9,0-19.7,0-29.6,0    C1314.3,614.1,1314.3,574.6,1314.3,535.2 M1316.4,537.3c0,38,0,76.1,0,114.1c8.4,0,16.9,0,25.3,0c0-38,0-76.1,0-114.1    C1333.3,537.3,1324.8,537.2,1316.4,537.3z"/>
		<path class="st3" d="M1487.4,550.7c7.3-1.4,14.4-3.9,21.8-4.7c1.9,7.4,4.1,14.7,6.2,22c-16.5,7-34.4,11.8-49.9,21.3    c-9.3,7.5-20.9,11.4-32.5,13.1c-15.5,2.7-31.2,1-46.8,0c0.1-1.5,1.3-2.6,2.1-3.8c7.4-9.9,14.3-20.2,21.9-29.9    C1436,562.7,1461.7,556.7,1487.4,550.7 M1493.5,551.5c-26.3,6.1-52.5,12.3-78.8,18.3c-1.6,0.5-3.7,0.4-4.4,2.1    c-6.6,9.6-14.1,18.6-20.1,28.5c20.7,1.8,42.5,2.7,62.1-5.6c6.8-2.6,11.9-8,18.5-11c13.5-6.6,27.7-11.8,41.9-16.6    c-1-6.4-3.6-12.4-5-18.7C1502.9,548.8,1498.2,550.6,1493.5,551.5z"/>
		<path class="st3" d="M1356.9,581.1c12.2-2.6,24.4-5.5,36.5-8.5c0,1.3-1,2.1-1.7,3c-11.8,14.4-23.1,29.3-35.1,43.5    C1356.7,606.5,1356.2,593.7,1356.9,581.1 M1358.7,582.9c-0.1,10-0.1,20.1,0,30.2c3.2-3,5.6-6.9,8.5-10.2    c7-8.8,14.2-17.5,21.1-26.5C1378.3,578,1368.6,580.9,1358.7,582.9z"/>
		<path class="st3" d="M1483.6,593.6c11.6-5.3,23.8-10.4,35.7-14.4c2.6,12.2,5.8,24.2,9.2,36.2c3.5,12,3.3,25,0,37    c-1.3,0.4-2.7,0.5-4,0.5c-55.7-0.1-111.4,0-167,0c0.4-5-1.5-10.9,2.4-14.9c6.7-8.3,12.8-16.9,19.8-25c8.3,2,17,2.3,25.5,2.8    c14.1,0.4,28.5-0.4,42.2-4C1460.6,608.1,1471.3,599.1,1483.6,593.6 M1480.2,597.6c-10.8,5.7-20.8,13.2-32.7,16.3    c-22,5.5-45.1,4.8-67.4,1.6c-6.6,8.6-13.3,17.1-20,25.7c-0.9,3-0.2,6.3-0.4,9.5c55.7,0.1,111.5,0.2,167.2-0.1    c1.8-6.3,2.3-12.8,2.2-19.3c-0.1-9.6-3.6-18.7-5.9-27.9c-2.1-7.1-3.3-14.5-5.7-21.4C1504.8,586.7,1492.3,591.6,1480.2,597.6z"/>
		<path class="st3" d="M612.7,609.1c20.1,0,40.1,0,60.2,0c0,35.9,0,71.8,0,107.7c6.3,0,12.7,0,19,0c0.1,26.4,0,52.8,0,79.2    c50.4,0,100.7,0,151.1,0c0,16.2,0,32.4,0,48.6c-76.8,0-153.5,0-230.3,0C612.6,766.2,612.6,687.7,612.7,609.1 M614.8,611.3    c0,77.1,0,154.3,0,231.4c75.4,0,150.7,0,226.1,0c0-14.8,0-29.6,0-44.4c-50.4,0-100.7,0-151.1,0c0-26.4,0-52.8,0-79.2    c-6.3,0-12.7,0-19,0c0-35.9,0-71.8,0-107.8C652.1,611.2,633.4,611.2,614.8,611.3z"/>
		<path class="st3" d="M684.5,609.1c52.8,0,105.6,0,158.5,0c0,31.7,0,63.4,0,95.1c-52.8,0-105.7,0-158.5,0    C684.5,672.5,684.5,640.8,684.5,609.1 M686.6,611.3c0,30.3,0,60.6,0,90.8c51.4,0,102.8,0,154.3,0c0-30.3,0-60.6,0-90.9    C789.5,611.3,738,611.2,686.6,611.3z"/>
		<path class="st3" d="M857.8,609.1c57.1,0,114.1,0,171.2,0c0,24.3,0,48.6,0,72.9c-57.1,0-114.1,0-171.2,0    C857.8,657.7,857.8,633.4,857.8,609.1 M859.9,611.2c0,22.9,0,45.8,0,68.7c55.6,0,111.3,0,166.9,0c0-22.9,0-45.8,0-68.7    C971.2,611.2,915.6,611.2,859.9,611.2z"/>
		<path class="st3" d="M1034.3,609.1c31.7,0,63.4,0,95.1,0c0,22.2,0,44.4,0,66.5c-31.7,0-63.4,0-95.1,0    C1034.3,653.5,1034.3,631.3,1034.3,609.1 M1036.4,611.3c0,20.8,0,41.5,0,62.3c30.3,0,60.6,0,90.9,0c0-20.8,0-41.5,0-62.3    C1096.9,611.3,1066.7,611.2,1036.4,611.3z"/>
		<path class="st3" d="M1133.6,609.1c12.7,0,25.3,0,38,0c0,108.1,0,216.2,0,324.4c-12.7,0-25.4,0-38,0    C1133.6,825.4,1133.6,717.3,1133.6,609.1 M1135.7,611.2c0,106.7,0,213.4,0,320.2c11.3,0,22.5,0,33.8,0c0-106.7,0-213.4,0-320.2    C1158.2,611.2,1147,611.2,1135.7,611.2z"/>
		<path class="st3" d="M1188.5,666.2c34.5,0,69,0,103.5,0c0,29.9,0,59.9,0,89.8c-34.5,0-69,0-103.5,0    C1188.5,726.1,1188.5,696.1,1188.5,666.2 M1190.7,668.3c0,28.5,0,57.1,0,85.6c33.1,0,66.2,0,99.3,0c0-28.5,0-57.1,0-85.6    C1256.9,668.3,1223.8,668.3,1190.7,668.3z"/>
		<path class="st3" d="M1295.3,666.2c16.5,0,33.1,0,49.7,0c0,74.7,0,149.3,0,224c-52.1,0-104.3,0-156.4,0c0-15.9,0-31.7,0-47.5    c35.6,0,71.1,0,106.7,0C1295.3,783.8,1295.2,725,1295.3,666.2 M1297.4,668.3c0,58.8,0,117.6,0,176.5c-35.6,0-71.1,0-106.7,0    c0,14.4,0,28.9,0,43.3c50.7,0,101.4,0,152.2,0c0-73.3,0-146.5,0-219.8C1327.6,668.3,1312.5,668.3,1297.4,668.3z"/>
		<path class="st3" d="M1422.1,666.2c12.3,0,24.6,0,37,0c0,17.6,0,35.2,0,52.8c-12.3,0-24.7,0-37,0    C1422.1,701.4,1422,683.8,1422.1,666.2 M1424.2,668.3c0,16.2,0,32.4,0,48.6c10.9,0,21.8,0,32.7,0c0-16.2,0-32.4,0-48.6    C1446,668.3,1435.1,668.3,1424.2,668.3z"/>
		<path class="st3" d="M1465.4,666.2c7.7,0,15.5,0,23.2,0c0,27.5,0,54.9,0,82.4c-7.8,0-15.5,0-23.2,0    C1465.4,721.1,1465.4,693.7,1465.4,666.2 M1467.5,668.3c0,26.1,0,52.1,0,78.2c6.3,0,12.7,0,19,0c0-26.1,0-52.1,0-78.2    C1480.2,668.3,1473.8,668.3,1467.5,668.3z"/>
		<path class="st3" d="M1668.3,666.2c26.8,0,53.5,0,80.3,0c0,20.4,0,40.8,0,61.3c-26.8,0-53.5,0-80.3,0    C1668.3,707,1668.3,686.6,1668.3,666.2 M1670.4,668.3c0,19,0,38,0,57.1c25.4,0,50.7,0,76.1,0c0-19,0-38,0-57.1    C1721.1,668.3,1695.7,668.3,1670.4,668.3z"/>
		<path class="st3" d="M1034.3,684.2c14.1,0,28.2,0,42.3,0c0,20.4,0,40.8,0,61.3c17.3,0,34.5,0,51.8,0c0,14.4,0,28.9,0,43.3    c-31.3,0-62.7,0-94,0C1034.3,753.9,1034.2,719,1034.3,684.2 M1036.4,686.3c0,33.5,0,66.9,0,100.4c29.9,0,59.9,0,89.8,0    c0-13,0-26.1,0-39.1c-17.3,0-34.5,0-51.8,0c0-20.4,0-40.8,0-61.3C1061.7,686.3,1049,686.2,1036.4,686.3z"/>
		<path class="st3" d="M1081.8,684.2c15.5,0,31,0,46.5,0c0,19,0,38,0,57.1c-15.5,0-31,0-46.5,0    C1081.8,722.2,1081.8,703.2,1081.8,684.2 M1083.9,686.3c0,17.6,0,35.2,0,52.8c14.1,0,28.2,0,42.2,0c0-17.6,0-35.2,0-52.8    C1112.1,686.3,1098,686.3,1083.9,686.3z"/>
		<path class="st3" d="M857.8,694.7c57.1,0,114.1,0,171.2,0c0,23.2,0,46.5,0,69.7c-57.1,0-114.1,0-171.2,0    C857.8,741.2,857.8,718,857.8,694.7 M859.9,696.8c0,21.8,0,43.7,0,65.5c55.6,0,111.3,0,166.9,0c0-21.8,0-43.7,0-65.5    C971.2,696.8,915.6,696.8,859.9,696.8z"/>
		<path class="st3" d="M173.1,708.2l0.9-0.1c21.2,3.9,42.3,8.2,63.5,12.2c0.1,4.2,0.1,8.4,0.1,12.7c-21.5-3.9-43-8.1-64.4-12.2v-2    c20.8,3.7,41.5,7.8,62.2,11.8c0.1-2.9,0.5-5.8-0.2-8.7c-20.7-3.7-41.3-8-62-11.9V708.2z"/>
		<path class="st3" d="M696.1,716.9c19.4,0,38.7,0,58.1,0c0,25,0,50,0,75c-19.4,0-38.7,0-58.1,0    C696.1,766.9,696.1,741.9,696.1,716.9 M698.2,719c0,23.6,0,47.2,0,70.8c18,0,35.9,0,53.9,0c0-23.6,0-47.2,0-70.8    C734.2,719,716.2,719,698.2,719z"/>
		<path class="st3" d="M757.4,716.9c28.5,0,57.1,0,85.6,0c0,25,0,50,0,75c-28.5,0-57.1,0-85.6,0    C757.4,766.9,757.4,741.9,757.4,716.9 M759.5,719c0,23.6,0,47.2,0,70.8c27.1,0,54.2,0,81.3,0c0-23.6,0-47.2,0-70.8    C813.8,719,786.6,719,759.5,719z"/>
		<path class="st3" d="M1422.1,725.4c12.3,0,24.7,0,37,0c0,7.7,0,15.5,0,23.2c-12.3,0-24.7,0-37,0    C1422.1,740.9,1422,733.1,1422.1,725.4 M1424.2,727.5c0,6.3,0,12.7,0,19c10.9,0,21.8,0,32.7,0c0-6.3,0-12.7,0-19    C1446,727.5,1435.1,727.5,1424.2,727.5z"/>
		<path class="st3" d="M1668.3,739.1c26.8,0,53.5,0,80.3,0c0,24.6,0,49.3,0,73.9c-26.8,0-53.5,0-80.3,0    C1668.3,788.4,1668.3,763.8,1668.3,739.1 M1670.4,741.2c0,23.2,0,46.5,0,69.7c25.3,0,50.7,0,76,0c0-23.2,0-46.5,0-69.7    C1721.1,741.2,1695.8,741.2,1670.4,741.2z"/>
		<path class="st3" d="M1188.5,766.6c14.8,0,29.6,0,44.4,0c0,24.3,0,48.6,0,72.9c-14.8,0-29.6,0-44.4,0    C1188.5,815.2,1188.5,790.9,1188.5,766.6 M1190.6,768.7c0,22.9,0,45.8,0,68.7c13.4,0,26.8,0,40.1,0c0-22.9,0-45.8,0-68.7    C1217.4,768.7,1204,768.7,1190.6,768.7z"/>
		<path class="st3" d="M1236.1,766.6c18.7,0,37.3,0,56,0c0,24.3,0,48.6,0,72.9c-18.7,0-37.3,0-56,0    C1236.1,815.2,1236.1,790.9,1236.1,766.6 M1238.2,768.7c0,22.9,0,45.8,0,68.7c17.3,0,34.5,0,51.8,0c0-22.9,0-45.8,0-68.7    C1272.7,768.7,1255.5,768.7,1238.2,768.7z"/>
		<path class="st3" d="M1034.3,796.2c31.7,0,63.4,0,95.1,0c0,22.2,0,44.4,0,66.6c-31.7,0-63.4,0-95.1,0    C1034.3,840.5,1034.2,818.4,1034.3,796.2 M1036.4,798.3c0,20.8,0,41.6,0,62.3c30.3,0,60.6,0,90.9,0c0-20.8,0-41.6,0-62.3    C1097,798.3,1066.7,798.3,1036.4,798.3z"/>
		<path class="st3" d="M1541.5,824.7c38.4,0,76.8,0,115.2,0c0,18,0,35.9,0,53.9c-25,0-50,0-75,0c0-5.3,0-10.6,0-15.8    c-13.4,0-26.8,0-40.1,0C1541.5,850,1541.4,837.4,1541.5,824.7 M1543.6,826.8c0,11.3,0,22.5,0,33.8c13.4,0,26.8,0,40.1,0    c0,5.3,0,10.5,0,15.8c23.6,0,47.2,0,70.8,0c0-16.6,0-33.1,0-49.7C1617.5,826.8,1580.6,826.8,1543.6,826.8z"/>
		<path class="st3" d="M1668.3,824.7c26.8,0,53.5,0,80.3,0c0,21.8,0,43.7,0,65.5c-26.8,0-53.5,0-80.3,0    C1668.3,868.4,1668.3,846.5,1668.3,824.7 M1670.4,826.8c0,20.4,0,40.9,0,61.3c25.3,0,50.7,0,76.1,0c0-20.4,0-40.9,0-61.3    C1721.1,826.8,1695.8,826.8,1670.4,826.8z"/>
		<path class="st3" d="M2039.4,864.1c2.5-9.5,4.3-19.1,7.2-28.4v8.6c-4.1,15.3-7.6,30.8-11.3,46.2c3.8,0.9,7.6,1.6,11.3,2.5v1.9    c-4.7-0.4-9.2-1.9-13.8-2.7C2034.6,882.7,2037.2,873.4,2039.4,864.1z"/>
		<path class="st3" d="M612.7,856.4c40.9,0,81.7,0,122.6,0c0,13.7,0,27.5,0,41.2c-40.9,0-81.7,0-122.6,0    C612.6,883.9,612.6,870.1,612.7,856.4 M614.8,858.5c0,12.3,0,24.6,0,37c39.4,0,78.9,0,118.3,0c0-12.3,0-24.6,0-37    C693.6,858.5,654.2,858.5,614.8,858.5z"/>
		<path class="st3" d="M752.1,856.4c30.3,0,60.6,0,90.8,0c0,13.7,0,27.5,0,41.2c-30.3,0-60.6,0-90.9,0    C752.1,883.9,752.1,870.1,752.1,856.4 M754.2,858.5c0,12.3,0,24.6,0,37c28.9,0,57.8,0,86.6,0c0-12.3,0-24.7,0-37    C812,858.5,783.1,858.5,754.2,858.5z"/>
		<path class="st3" d="M857.8,856.4c23.6,0,47.2,0,70.8,0c0,13.7,0,27.5,0,41.2c-23.6,0-47.2,0-70.8,0    C857.8,883.9,857.8,870.1,857.8,856.4 M859.9,858.5c0,12.3,0,24.7,0,37c22.2,0,44.4,0,66.5,0c0-12.3,0-24.7,0-37    C904.3,858.5,882.1,858.5,859.9,858.5z"/>
		<path class="st3" d="M934.9,856.4c15.5,0,31,0,46.5,0c0,25.7,0,51.4,0,77.1c-15.5,0-31,0-46.5,0    C934.9,907.8,934.9,882.1,934.9,856.4 M937.1,858.5c0,24.3,0,48.6,0,72.9c14.1,0,28.2,0,42.3,0c0-24.3,0-48.6,0-72.9    C965.2,858.5,951.1,858.5,937.1,858.5z"/>
		<path class="st3" d="M986.7,856.4c14.1,0,28.2,0,42.2,0c0,25.7,0,51.4,0,77.1c-14.1,0-28.2,0-42.3,0    C986.7,907.8,986.7,882.1,986.7,856.4 M988.8,858.5c0,24.3,0,48.6,0,72.9c12.7,0,25.4,0,38,0c0-24.3,0-48.6,0-72.9    C1014.2,858.5,1001.5,858.5,988.8,858.5z"/>
		<path class="st3" d="M1034.3,867c31.7,0,63.4,0,95.1,0c0,22.2,0,44.4,0,66.6c-31.7,0-63.4,0-95.1,0    C1034.2,911.3,1034.3,889.2,1034.3,867 M1036.4,869.1c0,20.8,0,41.5,0,62.3c30.3,0,60.6,0,90.9,0c0-20.8,0-41.6,0-62.3    C1097,869.1,1066.7,869.1,1036.4,869.1z"/>
		<path class="st3" d="M1541.5,868c11.6,0,23.2,0,34.8,0c0,11.6,0,23.2,0,34.9c-11.6,0-23.2,0-34.8,0    C1541.4,891.3,1541.5,879.7,1541.5,868 M1543.6,870.2c0,10.2,0,20.4,0,30.6c10.2,0,20.4,0,30.6,0c0-10.2,0-20.4,0-30.6    C1564,870.1,1553.8,870.1,1543.6,870.2z"/>
		<path class="st3" d="M1581.6,886c25,0,50,0,75,0c0,16.2,0,32.4,0,48.6c-38.4,0-76.8,0-115.2,0c0-8.8,0-17.6,0-26.4    c13.4,0,26.8,0,40.1,0C1581.6,900.8,1581.6,893.4,1581.6,886 M1583.8,888.1c-0.1,7.4,0,14.8,0,22.2c-13.4,0-26.7,0-40.1,0    c0,7.4,0,14.8,0,22.2c37,0,74,0,110.9,0c0-14.8,0-29.6,0-44.4C1630.9,888.1,1607.3,888.1,1583.8,888.1z"/>
		<path class="st3" d="M1188.5,894.4c10.2,0,20.4,0,30.6,0c0,13.4,0,26.8,0,40.1c-10.2,0-20.4,0-30.6,0    C1188.5,921.2,1188.5,907.8,1188.5,894.4 M1190.7,896.6c0,12,0,23.9,0,35.9c8.8,0,17.6,0,26.4,0c0-12,0-23.9,0-35.9    C1208.2,896.5,1199.4,896.5,1190.7,896.6z"/>
		<path class="st3" d="M1222.4,894.4c10.2,0,20.4,0,30.6,0c0,13.4,0,26.8,0,40.1c-10.2,0-20.4,0-30.6,0    C1222.3,921.2,1222.3,907.8,1222.4,894.4 M1224.5,896.5c0,12,0,23.9,0,35.9c8.8,0,17.6,0,26.4,0c0-12,0-23.9,0-35.9    C1242.1,896.5,1233.3,896.5,1224.5,896.5z"/>
		<path class="st3" d="M1256.2,894.5c29.6,0,59.2,0,88.8,0c0,13.4,0,26.7,0,40.1c-29.6,0-59.2,0-88.8,0    C1256.2,921.2,1256.2,907.8,1256.2,894.5 M1258.3,896.5c0,12,0,24,0,35.9c28.2,0,56.3,0,84.5,0c0-12,0-24,0-35.9    C1314.6,896.5,1286.5,896.5,1258.3,896.5z"/>
		<path class="st3" d="M1357.6,894.4c19,0,38,0,57.1,0c0,23.3,0,46.5,0,69.8c-0.7-0.1-2-0.3-2.6-0.4c-1.7-11.9-14.2-17.8-24.8-19.9    c-0.1-3.1,0-6.2-0.1-9.3c-9.9,0-19.7,0-29.6,0C1357.6,921.2,1357.6,907.8,1357.6,894.4 M1359.7,896.6c0,12,0,23.9,0,35.9    c9.9,0,19.7,0,29.6,0c0,3.2,0,6.4,0,9.7c9.2,2.1,18.2,7,23.2,15.2c0.2-20.3,0-40.5,0.1-60.8    C1394.9,896.5,1377.3,896.5,1359.7,896.6z"/>
		<path class="st3" d="M1422.1,894.4c35.2,0,70.4,0,105.6,0c0,13.4,0,26.8,0,40.1c-15.5,0-31,0-46.5,0c0,9.8,0,19.7,0,29.6    c-19.7,0-39.4,0-59.2,0C1422,940.9,1422.1,917.7,1422.1,894.4 M1424.2,896.6c0,21.8,0,43.7,0,65.5c18.3,0,36.6,0,54.9,0    c0-9.9,0-19.7,0-29.6c15.5,0,31,0,46.5,0c0-12,0-24,0-35.9C1491.8,896.5,1458,896.5,1424.2,896.6z"/>
		<path class="st3" d="M2009.6,900.6c12.3,2.7,24.6,5.4,36.9,8.2v1.9c-11.7-2-23.2-5-34.7-7.5c-0.7,17.5-0.8,35.1-1.2,52.6    c12,0.4,23.9,0.7,35.9,1v2.1c-12.7-0.4-25.4-0.7-38.1-1.1C2008.9,938.7,2009.2,919.6,2009.6,900.6z"/>
		<path class="st3" d="M752.1,902.9c58.8,0,117.6,0,176.4,0c0,10.2,0,20.4,0,30.6c-58.8,0-117.6,0-176.5,0    C752.1,923.3,752.1,913.1,752.1,902.9 M754.2,905c0,8.8,0,17.6,0,26.4c57.4,0,114.8,0,172.2,0c0-8.8,0-17.6,0-26.4    C869.1,905,811.6,905,754.2,905z"/>
		<path class="st3" d="M1668.3,902.9c26.8,0,53.5,0,80.3,0c0,22.5,0,45.1,0,67.6c-26.8,0-53.5,0-80.3,0    C1668.3,948,1668.3,925.4,1668.3,902.9 M1670.4,905c0,21.1,0,42.2,0,63.4c25.4,0,50.7,0,76.1,0c0-21.1,0-42.3,0-63.4    C1721.1,905,1695.7,905,1670.4,905z"/>
		<path class="st3" d="M173.1,916.6c5.3,0,10.6,0,15.8,0c0,27.1,0,54.2,0,81.4h-2.1c0-26.4,0-52.8,0-79.2c-4.6,0-9.2,0-13.7,0V916.6    z"/>
		<path class="st3" d="M1484.4,937.8c14.4,0,28.9,0,43.3,0c0,8.8,0,17.6,0,26.4c-14.4,0-28.9,0-43.3,0    C1484.4,955.4,1484.4,946.6,1484.4,937.8 M1486.5,939.9c0,7.4,0,14.8,0,22.2c13,0,26,0,39.1,0c0-7.4,0-14.8,0-22.2    C1512.6,939.9,1499.5,939.9,1486.5,939.9z"/>
		<path class="st3" d="M1541.5,940.9c38.4,0,76.8,0,115.1,0c0,19,0,38,0,57.1h-2.1c0-18.3,0-36.6,0-54.9c-37,0-74,0-110.9,0    c0,18.3,0,36.6,0,54.9h-2.1C1541.5,979,1541.4,959.9,1541.5,940.9z"/>
		<path class="st3" d="M2008.5,963.1c12.7,0,25.3,0,38,0v2.1c-12,0-23.9,0-35.9,0c0,10.9,0,21.8,0,32.8h-2.1    C2008.5,986.4,2008.5,974.7,2008.5,963.1z"/>
		<path class="st3" d="M1484.4,967.4c14.4,0,28.9,0,43.3,0c0,10.2,0,20.4,0,30.6h-2.1c0-9.5,0-19,0-28.5c-13,0-26.1,0-39.1,0    c0,9.5,0,19,0,28.5h-2.1C1484.4,987.8,1484.4,977.6,1484.4,967.4z"/>
		<path class="st3" d="M308.3,982.2c17.6,0,35.2,0,52.8,0c0.1,5.3,0,10.6,0,15.9H359c0-4.6,0-9.2,0-13.7c-16.2,0-32.4,0-48.6,0    c0,4.6,0,9.1,0,13.7h-2.1C308.3,992.7,308.3,987.4,308.3,982.2z"/>
		<path class="st3" d="M449.9,982.2c5.3,0,10.6,0,15.8,0c0,5.3,0,10.6,0,15.8h-2.1c0-4.6,0-9.2,0-13.7c-3.9,0-7.7,0-11.6,0    c0,4.6,0,9.2,0,13.7h-2.1C449.9,992.7,449.9,987.4,449.9,982.2z"/>
		<path class="st3" d="M470,982.2c19.7,0,39.4,0,59.2,0c0,5.3,0,10.6,0,15.8h-2.1c0-4.6,0-9.2,0-13.7c-18.3,0-36.6,0-54.9,0    c0,4.6,0,9.2,0,13.7H470C470,992.7,470,987.4,470,982.2z"/>
		<path class="st3" d="M534.5,982.2c26.1,0,52.1,0,78.2,0c0,5.3,0,10.6,0,15.8h-2.1c0-4.6,0-9.2,0-13.7c-24.6,0-49.3,0-73.9,0    c0,4.6,0,9.2,0,13.7h-2.1C534.4,992.7,534.4,987.4,534.5,982.2z"/>
		<path class="st3" d="M617.9,982.1c19,0,38,0,57,0c0,5.3,0,10.6,0,15.9h-2.1c0-4.6,0-9.2,0-13.7c-17.6,0-35.2,0-52.8,0    c0,4.6,0,9.1,0,13.7h-2.1C617.9,992.7,617.9,987.4,617.9,982.1z"/>
		<path class="st3" d="M680.3,982.2c34.9,0,69.7,0,104.6,0c0,5.3,0,10.6,0,15.9h-2.1c0-4.6,0-9.2,0-13.7c-33.5,0-66.9,0-100.4,0    c0,4.6,0,9.2,0,13.7h-2.1C680.3,992.7,680.3,987.4,680.3,982.2z"/>
		<path class="st3" d="M803.9,982.1c58.5,0,116.9,0,175.4,0c0,5.3,0,10.6,0,15.8h-2.1c0-4.6,0-9.2,0-13.7c-57.1,0-114.1,0-171.2,0    c0,4.6,0,9.1,0,13.7h-2.1C803.9,992.7,803.9,987.4,803.9,982.1z"/>
		<path class="st3" d="M986.7,982.2c15.9,0,31.7,0,47.5,0c0,5.3,0,10.6,0,15.9h-2.1c0-4.6,0-9.2,0-13.7c-14.4,0-28.9,0-43.3,0    c0,4.6,0,9.2,0,13.7h-2.1C986.7,992.7,986.7,987.4,986.7,982.2z"/>
		<path class="st3" d="M1039.6,982.1c31,0,62,0,93,0c0,5.3,0,10.6,0,15.9h-2.1c0-4.6,0-9.2,0-13.7c-29.6,0-59.2,0-88.8,0    c0,4.6,0,9.1,0,13.7h-2.1C1039.6,992.7,1039.5,987.4,1039.6,982.1z"/>
		<path class="st3" d="M1148.4,982.2c18.3,0,36.6,0,54.9,0c0,5.3,0,10.6,0,15.8h-2.1c0-4.6,0-9.2,0-13.7c-16.9,0-33.8,0-50.7,0    c0,4.6,0,9.2,0,13.7h-2.1C1148.4,992.7,1148.4,987.4,1148.4,982.2z"/>
		<path class="st3" d="M1208.6,982.1c32.7,0,65.5,0,98.3,0c0,5.3,0,10.5,0,15.8h-2.1c0-4.6,0-9.2,0-13.7c-31.3,0-62.7,0-94,0    c-0.1,4.6,0,9.2,0,13.7h-2.1C1208.6,992.7,1208.6,987.4,1208.6,982.1z"/>
	</g>
	<g id="_x23_3d83f6ff">
		<path class="st4" d="M497.5,98.8h2.1c0,51.8,0,103.5,0,155.3c39.1,0,78.2,0,117.3,0c10.3,0.2,19.7-8.6,20-19    c0.1-26.1,0-52.2,0.1-78.2c-17.3,0-34.5,0-51.8,0c0-19.4,0-38.7,0-58.1h2.1c0,18.7,0,37.3,0,56c17.3,0,34.5,0,51.7,0    c0,26.8,0.1,53.5,0,80.3c-0.2,11.1-10,20.8-21,21.1c-40.2,0.1-80.3,0-120.5,0C497.4,203.7,497.5,151.2,497.5,98.8z"/>
	</g>
	<g id="_x23_4186f6ff">
		<path class="st5" d="M521.8,98.8h2.1c0,23.6,0,47.2,0,70.7c13.4-5.6,26.8-11.2,40.1-16.9c0-18,0-35.9,0-53.8h2.1    c0,17.3,0,34.5,0,51.8c0.2,1.5-0.5,2.8-1.2,4c-12.8,5.5-25.8,10.8-38.6,16.3c-1.4,0.7-3,0.9-4.6,0.9    C521.8,147.4,521.8,123.1,521.8,98.8z"/>
		<path class="st5" d="M783.7,98.8h2.9c11.6,16,23.6,31.7,35.3,47.5c58.8,0,117.6,0,176.4,0c0-15.9,0-31.7,0-47.5h2.1    c0,16.6,0,33.1,0,49.7c-59.9,0-119.7,0-179.6,0C808.4,131.9,796.2,115.3,783.7,98.8z"/>
		<path class="st5" d="M1621.9,123.1c13.3,0,26.6-0.1,39.9,0c-0.1,6.3-0.1,12.6,0,18.9c-13.3,0.2-26.6,0.1-39.9,0.1    C1622,135.7,1621.9,129.4,1621.9,123.1 M1624,125.2c0.1,4.9,0.1,9.8,0,14.7c11.9,0.1,23.7,0.1,35.6,0c-0.1-4.9-0.1-9.8,0-14.7    C1647.8,125.1,1635.9,125.1,1624,125.2z"/>
		<path class="st5" d="M173.1,374.5c21.8,0,43.7,0,65.5,0c0,16.5,0,33.1,0,49.7c-13.6-0.2-27.3,0.4-40.9-0.3    c-9.4-9.8-17.2-21.1-24.6-32.4v-3.8c2.6,3,4.3,6.6,6.6,9.8c5.6,8.7,12.1,16.8,19,24.4c12.6,0.3,25.2,0.1,37.8,0.1    c0-15.1,0-30.3,0-45.4c-21.1,0-42.3,0-63.4,0V374.5z"/>
		<path class="st5" d="M897.9,447.5c9.9,0,19.8,0.1,29.7-0.1c2.2,2.4,5.2,3.9,7.9,5.8c34.2,22.5,68.4,45,102.6,67.4    c1,0.7,2.7,1.3,2.4,2.9c0,25.4,0,50.7,0,76.1c-47.6,0-95.1,0-142.7,0C897.9,548.9,897.9,498.2,897.9,447.5 M900.1,449.6    c0,49.3,0,98.6,0,147.9c46.1,0,92.3,0,138.4,0c0-24.7,0-49.4,0-74.1c-36.5-24.1-73.1-48-109.6-72.1c-1.3-0.8-2.7-2.1-4.4-1.8    C916.3,449.6,908.2,449.5,900.1,449.6z"/>
		<path class="st5" d="M1314.3,982.1c15.2,0,30.3-0.1,45.5,0c8.4,0.3,15.2,7.6,15.9,15.8h-2.2c-0.7-7.4-7.2-13.9-14.8-13.7    c-14.1-0.1-28.2,0-42.3,0c0,4.6,0,9.2,0,13.7h-2.1C1314.3,992.7,1314.3,987.4,1314.3,982.1z"/>
	</g>
	<g id="_x23_4085f6ff">
		<path class="st6" d="M530.2,98.8h2.1c0,19.2,0,38.4,0,57.6c8.1-3.3,16.2-6.7,24.3-10.1c0-15.8,0-31.6,0-47.5h2.1    c0,15.9,0,31.7,0,47.6c-0.1,0.4-0.2,1.2-0.3,1.6c-9.5,3.4-18.5,8.4-28.2,11.2C530.2,139,530.2,118.9,530.2,98.8z"/>
		<path class="st6" d="M1461.5,98.8h5.2c-5.6,1.3-8.7,7.2-7.7,12.7c13.4,0,26.8,0,40.2,0c0-4.2,0-8.4,0-12.7h2.1c0,4.9,0,9.9,0,14.8    c-14.8,0-29.6,0-44.4,0C1456.4,108.2,1457.1,102.4,1461.5,98.8z"/>
		<path class="st6" d="M1357.6,666.2c19,0,38,0,57.1,0c0,35,0,70,0,104.9c-19-5.7-37.8-12-56.8-17.6    C1357.3,724.5,1357.8,695.3,1357.6,666.2 M1359.7,668.3c0,27.8-0.1,55.6,0,83.5c17.6,5.4,35.1,11.2,52.8,16.4    c0-33.3,0-66.5,0-99.8C1394.9,668.3,1377.3,668.3,1359.7,668.3z"/>
		<path class="st6" d="M173.1,730.4c20.8,2.8,41.5,6.7,62.3,9.9c0,57,0,114,0,171.1c-20.8,0-41.6,0-62.3,0v-2.1    c20.1,0,40.2,0,60.2,0c0-55.7,0-111.4,0-167c-20.1-3.4-40.1-6.6-60.2-9.9V730.4z"/>
		<path class="st6" d="M1760.2,739.1c38.8,0,77.6,0,116.4,0c-5.5,24.7-11.2,49.3-16.9,74c-33.2,0-66.3,0-99.5,0    C1760.2,788.4,1760.2,763.8,1760.2,739.1 M1762.3,741.2c0,23.2,0,46.5,0,69.7c32-0.1,63.9,0.2,95.9-0.1    c4.9-23.2,10.9-46.3,15.6-69.6C1836.6,741.2,1799.5,741.2,1762.3,741.2z"/>
		<path class="st6" d="M1760.2,902.9c26.4,0.1,52.7-0.3,79.1,0.2c-5.4,22.4-10.3,44.9-15.5,67.4c-21.2,0-42.4,0-63.6,0    C1760.2,948,1760.2,925.4,1760.2,902.9 M1762.3,905c0,21.1,0,42.2,0,63.4c20-0.2,40,0.3,59.9-0.2c4.5-21.1,9.7-42.1,14.2-63.1    C1811.8,905,1787,905,1762.3,905z"/>
	</g>
	<g id="_x23_4387f6ff">
		<path class="st7" d="M691.9,98.8h2.1c0,12.3,0,24.7,0,37c27.1,0,54.2,0,81.4,0c0,6.1,0,12.2,0,18.4c3.7-2.3,6.7-5.6,10.5-7.8    c4.2-0.1,8.5,0.1,12.7-0.1c-11.8-15.7-23.5-31.6-35.1-47.4h3.1c2.3,4.4,5.7,8,8.5,12.1c9.1,12.5,18.7,24.8,27.5,37.5    c-5.4,0.2-10.9-0.2-16.3,0.2c-3.8,2.9-7.7,5.8-11.2,9.1c-0.4,0.1-1.3,0.3-1.7,0.4c0-6.7,0-13.5,0-20.2c-27.1,0-54.2,0-81.4,0    C691.9,124.8,691.9,111.8,691.9,98.8z"/>
		<path class="st7" d="M1356.5,196c15.5,0,31,0,46.5,0c0,29.6,0,59.2,0,88.8c27.5,0,54.9,0,82.4,0c0,8.5,0,17,0,25.5    c-8.2-2.6-17.9,1.9-20.3,10.3c-10,1.2-20.1,0.3-29.9-1.6c-10.7-2.2-21.3-6.3-29.6-13.5c-5.6-4.6-9.2-11.1-14.5-16.1    c-9.1-9.3-21.1-17.3-34.6-17.2C1356.5,246.7,1356.6,221.3,1356.5,196 M1358.7,198.1c0,23.9,0,47.8,0,71.8    c13.2,0.9,24.9,8.7,34,17.9c6.1,5.9,10.2,13.6,17.4,18.4c15.1,10.6,34.3,13.3,52.3,12.6c1.6,0.1,1.9-1.7,2.6-2.7    c3.6-6.2,11.3-9.8,18.3-8.3c0.5-6.9,0.1-13.9,0.2-20.8c-27.5,0-54.9,0-82.4,0c0-29.6,0-59.2,0-88.8    C1386.8,198.1,1372.7,198.1,1358.7,198.1z"/>
		<path class="st7" d="M285.1,404.2c1.4-2.1,4.3-0.7,6.4-1.1c28.1,2.4,56.2,5.2,84.3,7.6c1.5,16,2.6,32.2,2.1,48.3    c-31,0.2-61.9,0-92.9,0.1C285.1,440.8,285,422.5,285.1,404.2 M287.2,404.9c0,17.3,0,34.7,0,52c29.8,0,59.6,0,89.4,0    c-0.5-14.6-1.8-29.3-2.3-43.9c-1.2-0.4-2.4-0.6-3.6-0.6C342.8,410,315,407.2,287.2,404.9z"/>
		<path class="st7" d="M195.3,916.6c13.4,0,26.8,0,40.2,0c-0.2,15.8-0.3,32.4,7,46.9c5.2,10.6,16.7,16.3,27.8,18.6    c8.5,0.1,17,0,25.5,0.1c0,5.3,0,10.6,0,15.9h-2.1c0-4.6,0-9.2,0-13.7c-6.4,0-12.7-0.1-19.1,0.1c-5.4,0.5-10.5-1.6-15.4-3.6    c-7.7-3.2-14.8-8.7-18.6-16.4c-7.2-14.1-7.4-30.3-7.2-45.7c-12,0-23.9,0-35.9,0c0,26.4,0,52.8,0,79.2h-2.1    C195.3,970.9,195.3,943.7,195.3,916.6z"/>
	</g>
	<g id="_x23_4488f6ff">
		<path class="st8" d="M1012.1,98.8h2.1c0,39.1,0,78.2,0,117.3c16.5,0,33.1,0,49.6,0c2-20.5,12.6-39.9,28.4-53    c12-10.5,27.5-15.9,42.9-19.2c12-2.5,24.3-4.1,36.6-3.8c7,0,14.1,0,21.1,0c0-13.7,0-27.5,0-41.2h2.1c0,14.4,0,28.9,0,43.3    c-10.2,0-20.4-0.1-30.7,0.1c-17.8,1.1-35.7,4.1-52.2,11.1c-25.6,11.1-44.4,37-46.1,65c-17.9,0-35.9,0-53.8,0    C1012.1,178.4,1012.1,138.6,1012.1,98.8z"/>
		<path class="st8" d="M1012.1,229.8c18,0,35.9,0,53.9,0c-0.4,26.8,1,53.5,1.3,80.3c0.4,10.9,0.1,21.9,0.9,32.8    c-18.7,0-37.4,0-56.1,0C1012.1,305.2,1012.1,267.5,1012.1,229.8 M1014.2,231.9c0,36.3,0,72.5,0,108.8c17.2-0.1,34.4,0.2,51.5-0.1    c-0.4-10.5-0.4-21-0.6-31.5c-0.3-25.7-1.5-51.4-1.4-77.1C1047.2,231.8,1030.7,231.9,1014.2,231.9z"/>
		<path class="st8" d="M1578.7,303.1c23.4-0.8,47-0.1,70.5-0.4c9.2-0.6,18.2,5.8,20.5,14.8c2.8,9.1-2.2,19.7-10.9,23.6    c-3.9,2-8.4,2-12.7,1.8c-20.8,0-41.5,0-62.3,0c-12.7,1.1-23.9-11.9-20.7-24.3C1564.6,310.9,1571,304.5,1578.7,303.1 M1577.9,305.5    c-6.5,1.8-11.7,7.4-12.8,14c-2.6,11.4,8.2,22.8,19.7,21.3c21.8,0,43.7,0,65.5,0c9.2,0.2,17.5-7.7,17.9-16.9    c0.8-9.5-7.2-18.6-16.7-19c-21.9-0.1-43.7,0-65.6-0.1C1583.2,304.8,1580.5,304.7,1577.9,305.5z"/>
		<path class="st8" d="M284,609.1c50.7,0,101.4,0,152.2,0c-0.1,12.3,0.3,24.6,0,36.9c-23.5,1.3-46.5,9.5-65.4,23.4    c-29.3,21.2-48.6,55.6-51.1,91.7c0,0.8,0.1,2.4,0.1,3.2c-11.9,0.1-23.8,0-35.8,0.1C284,712.7,284,660.9,284,609.1 M286.1,611.2    c0,50.4,0,100.7,0,151.1c10.5-0.1,21,0.3,31.4-0.2c2.1-37.2,22-72.9,52.3-94.6c18.7-13.7,41.2-21.8,64.2-23.5    c0.1-10.9,0-21.8,0-32.7C384.8,611.2,335.5,611.3,286.1,611.2z"/>
		<path class="st8" d="M449.9,609.1c50.7,0,101.4,0,152.2,0c0,51.8,0,103.6,0,155.3c-11.9-0.1-23.8,0.2-35.7-0.1    c-1.1-37.5-21.3-73.5-51.6-95.2c-18.8-13.7-41.6-21.7-64.9-23C449.7,633.8,450,621.4,449.9,609.1 M452,611.3c0,10.9,0,21.8,0,32.7    c23,1.7,45.6,9.9,64.2,23.5c30.3,21.7,50.2,57.4,52.3,94.7c10.5,0.5,21,0.1,31.4,0.2c0-50.4,0-100.7,0-151.1    C550.6,611.2,501.3,611.2,452,611.3z"/>
		<path class="st8" d="M1541.5,666.2c38.4,0,76.8,0,115.2,0c0,49,0,97.9,0,146.9c-10.9,0-21.8,0-32.7,0    c-0.9-19.7-6.4-39.3-16.7-56.2c-11.7-19.6-29.3-35.6-49.8-45.4c-5-2.2-10.1-4.9-15.6-5.7C1541,692.7,1541.7,679.4,1541.5,666.2     M1543.6,668.3c0.1,11.8-0.3,23.7,0.2,35.5c22.9,7.1,43.2,21.8,57.7,40.7c14.7,19,23.1,42.5,24.4,66.4c9.5,0,19,0,28.6,0    c0-47.6,0-95.1,0-142.6C1617.5,668.3,1580.6,668.3,1543.6,668.3z"/>
		<path class="st8" d="M857.8,775c31,0,62,0,93,0c16.9,0.2,33.8-0.3,50.6,0.3c-7.6,10.1-19.6,16-31.3,20.2    c-13.1,5-26.9,8.7-39.2,15.6c-13.8,8.2-24.2,20.6-33.2,33.6c-13.3,0.1-26.6,0-39.9,0C857.8,821.5,857.8,798.3,857.8,775     M859.9,777.2c0,21.8,0,43.7,0,65.5c12.3,0,24.6,0,36.9,0c10-15.1,22.9-28.9,39.5-36.8c13.3-5.9,27.3-9.8,40.6-15.4    c7.2-3.3,14.7-7.2,19.8-13.3C951.1,777.1,905.5,777.2,859.9,777.2z"/>
		<path class="st8" d="M284,778.2c11.9,0.1,23.8-0.2,35.7,0.1c1.1,39.3,23.3,76.9,56,98.3c17.9,11.9,39,18.8,60.5,20    c-0.1,12.3,0.3,24.6-0.1,36.9c-50.7,0-101.4,0-152.1,0C284,881.8,284,830,284,778.2 M286.1,780.3c0,50.4,0,100.7,0,151.1    c49.3,0,98.7,0,148,0c0-10.9,0-21.8,0-32.7c-21.5-1.6-42.6-8.8-60.5-20.9c-32.3-21.5-53.8-58.5-56.1-97.3    C307.1,780.1,296.6,780.4,286.1,780.3z"/>
	</g>
	<g id="_x23_3f85f6ff">
		<path class="st9" d="M1419.9,98.8h2.1c0,13.7,0,27.5,0,41.2c8.4,0,16.9,0,25.3,0c0-8.5,0-16.9,0-25.3c0.3-5.6,1.3-11.7,5.4-15.9    h3.2c-2.8,2.4-5.2,5.5-5.6,9.3c-1.5,11.3-0.8,22.7-1,34c-9.9,0-19.7,0-29.6,0C1419.9,127.6,1419.9,113.2,1419.9,98.8z"/>
		<path class="st9" d="M1357.6,767.1c19.1,5.5,37.9,11.9,57,17.5c0.2,35.2,0,70.4,0.1,105.5c-19,0-38,0-57.1,0    C1357.6,849.2,1357.6,808.2,1357.6,767.1 M1359.9,769.8c-0.5,39.4-0.1,78.8-0.2,118.3c17.6,0,35.2,0,52.8,0    c-0.1-33.8,0.2-67.7-0.1-101.5C1395.2,780.5,1377.3,775.7,1359.9,769.8z"/>
		<path class="st9" d="M1760.2,824.7c32.2,0,64.3,0.1,96.5-0.1c0.5,2.8-1.2,5.7-1.5,8.5c-4.2,18.9-8.8,37.8-12.8,56.8    c-27.3,0.6-54.7,0.1-82.1,0.3C1760.2,868.4,1760.2,846.5,1760.2,824.7 M1762.3,826.8c0,20.4,0,40.8,0,61.3c26,0,52.1,0.1,78.1,0    c4.6-20.4,9.4-40.8,13.9-61.2C1823.7,826.8,1793,826.8,1762.3,826.8z"/>
	</g>
	<g id="_x23_4488f7ff">
		<path class="st10" d="M1621.9,98.8h2.1c0.1,6,0.1,11.9,0,17.9c11.9,0.2,23.7,0.1,35.6,0c-0.1-6,0-11.9,0-17.9h2.2    c-0.1,6.7,0,13.4,0,20c-13.3,0.1-26.6,0.1-39.9,0C1621.9,112.1,1621.9,105.4,1621.9,98.8z"/>
	</g>
	<g id="_x23_4588f7ff">
		<path class="st11" d="M1706.3,98.8h2.2c0,13.4,0,26.8,0,40.1c20.6-0.1,41.3,0.3,61.9-0.2c8.6-15.8,20.2-30.6,35.8-39.9h5    c-17.9,8.6-30.3,25.2-39.6,42.1c-21.8,0.3-43.6,0.1-65.3,0.1C1706.3,126.9,1706.3,112.8,1706.3,98.8z"/>
	</g>
	<g id="_x23_4588f6ff">
		<path class="st12" d="M1826.4,98.8h3.9c-15.6,11.4-31.2,23.7-41.7,40.1c39.5,0.1,79.1-0.1,118.6,0.1c10.6,1.9,20.9,5.5,30.3,10.8    c14,8,22.2,23.4,25.6,38.7c0.1,6.7,0,13.5,0.1,20.2c27.8,0,55.6,0,83.5,0v2.1c-28.5,0-57.1,0-85.6,0c0-6,0-12,0-18    c0.4-5.7-2-11-3.9-16.2c-3.9-9.3-10-18.1-18.5-23.7c-8.7-5.7-18.7-8.9-28.7-11.3c-3.3-0.9-6.8-0.6-10.1-0.6    c-38.3,0-76.5,0-114.8,0C1794.5,123.4,1810.7,110.7,1826.4,98.8z"/>
		<path class="st12" d="M201.7,429.5c11.9-0.1,23.9,0,35.8,0c0,11.1,0,22.2,0,33.3c-14.2-7.5-26.5-18.6-36.5-31.2    C201.2,431.1,201.5,430,201.7,429.5 M204.2,431.6c8.4,11.2,19.4,20.3,31.2,27.6c0-9.2,0-18.4,0-27.6    C225,431.6,214.6,431.6,204.2,431.6z"/>
		<path class="st12" d="M1012.3,775c5.5,0,11.1,0,16.7,0c0,23.2,0,46.5,0,69.7c-40.5,0-81.1,0-121.6,0c-0.7-1.6,0.8-2.7,1.6-3.8    c6.9-8.9,15-16.9,24.5-23.1c18.3-11.5,40.7-14.2,59.2-25.4c6.8-3.9,11.5-10.3,17.7-15C1011,776.8,1011.7,775.9,1012.3,775     M1003.1,787.2c-7.1,7-16.1,11.6-25.4,15c-16,6.4-33.6,10.1-47.6,20.7c-7.4,5.6-14,12.3-19.6,19.7c38.8,0.1,77.6,0,116.3,0    c0-21.8,0-43.7,0-65.5c-3.9,0-7.8-0.1-11.7,0.1C1010.5,779.6,1006.8,783.5,1003.1,787.2z"/>
	</g>
	<g id="_x23_3e84f6ff">
		<path class="st13" d="M691.9,148.4c22.9,0,45.8,0,68.7,0c0,6.7,0,13.5,0,20.2c-3.2,2.4-6.1,5.3-9.5,7.2    c-19.7,0.1-39.4-0.1-59.2,0.1C691.9,166.7,691.9,157.6,691.9,148.4 M694,150.5c0,7.7,0,15.4,0,23.2c18.7,0,37.4,0,56.1,0    c3.1-1.4,5.6-4,8.3-6.1c0.3-5.7,0-11.3,0.1-17C737,150.5,715.5,150.5,694,150.5z"/>
		<path class="st13" d="M1143.4,208c9.4-9,23-11.4,35.6-12c55,0,109.9,0,164.9,0c0,25.4,0,50.7,0,76.1c-70.1,0-140.2,0-210.3,0    c0-9.8,0.1-19.7-0.1-29.5C1133.7,230.4,1136,217.8,1143.4,208 M1149.6,205.7c-6.1,3.4-8.9,10.2-11,16.6    c-4.9,15.4-2.3,31.8-2.9,47.7c68.7,0,137.4,0,206,0c0-23.9,0-47.9,0-71.8c-49.7,0-99.3,0-149,0    C1178.2,197.9,1162.5,197.7,1149.6,205.7z"/>
		<path class="st13" d="M285.6,323.2c2-9.5,10.9-17,20.6-17.3c22.2-0.1,44.4,0,66.6,0c0,12.3,0,24.7,0,37c-29.2,0-58.5,0-87.7,0    C285.3,336.3,284.5,329.7,285.6,323.2 M287.5,324.8c-0.6,5.3-0.2,10.6-0.3,15.9c27.8,0,55.6,0,83.5,0c0-10.9,0-21.8,0-32.7    c-21.1,0-42.3,0-63.4,0C297.7,307.8,288.9,315.4,287.5,324.8z"/>
		<path class="st13" d="M1760.2,666.2c44.4,0,88.7,0,133.1,0c-4.6,20.4-9.4,40.8-13.9,61.2c-39.7,0.2-79.5,0-119.2,0.1    C1760.2,707.1,1760.2,686.6,1760.2,666.2 M1762.3,668.3c0,19,0,38,0,57.1c38.4,0,76.8,0,115.2,0c4.3-19,8.9-38,12.9-57.1    C1847.8,668.3,1805,668.3,1762.3,668.3z"/>
	</g>
	<g id="_x23_4c8df7ff">
		<path class="st14" d="M790.5,161.3c7.2-0.6,14.5-0.1,21.7-0.2c46.8,63.4,93.7,126.8,140.6,190.3c1.2,1.9,3.4,3.6,3.2,6.1    c-50.3,0.5-100.7,0-151,0.3c-16.2,1.2-33,5.9-45.4,16.9c-5.4,4.6-8.5,11.1-13,16.4c-6.8,8.2-16.1,15.8-27.1,16.2    c-2.4-0.6-4.9,0.4-7.2,0c-6.4-6-12.2-12.6-17.9-19.2c-7.1-8.6-16.5-14.8-26-20.3c-17-9.7-35-17.5-53.4-24    c-0.2-12.4,0-24.7-0.1-37.1c18.6-1.4,37.7-6.1,52.3-18.1c14.6-11.7,21.6-30.2,24.7-48c0.2-17.3,0-34.6,0.1-51.9    c21.4-0.2,42.9,0.3,64.3-0.3C767.6,179.3,779,170.3,790.5,161.3 M791.4,163.4c-11.7,9-23.1,18.6-35,27.3c-20.8,0-41.6,0-62.4,0    c0,16.6,0,33.2,0,49.8c-2.4,14.9-7.7,29.8-17.3,41.7c-6.8,8.3-16.2,14.1-25.7,18.8c-10.8,4.1-22.3,6.8-33.9,7.5    c-0.7,11.1-0.1,22.2-0.3,33.3c19.9,7.8,40,15.9,58.1,27.4c7.8,5,15.4,10.6,21.3,17.9c4.5,5.3,9.2,10.5,14.1,15.5    c4.3,3.9,10.8,2.7,15.8,1.2c11.5-4.1,19.3-14.2,25.8-24c12.1-16,32.7-22.7,51.9-24.2c49.7-0.1,99.4,0.1,149.1-0.1    c-47.2-64.1-94.7-128-141.9-192.1C804.6,163.1,798,163.1,791.4,163.4z"/>
		<path class="st14" d="M1290.7,451.4c16.1-11.8,34.4-20.8,54.2-24.2c-0.2,22.8,0.3,45.7-0.3,68.5c-8.9,2.5-19.5,2.1-26.4-4.7    c-10.9-11-20.3-23.5-29.8-35.7C1286.5,453.6,1289.6,452.4,1290.7,451.4 M1330.1,433.2c-14,4.2-26.6,11.8-38.4,20.2    c-1.8,0.8-0.2,2.4,0.5,3.3c8.9,11.2,17.4,22.7,27.6,32.7c5.9,5.9,15.2,6.6,22.9,4.4c-0.1-21.4,0.3-42.8-0.2-64.2    C1338.5,431,1334.2,431.8,1330.1,433.2z"/>
		<path class="st14" d="M215.3,650.2c7.4-3.6,14.6-7.6,22.2-10.9c0,7.2,0,14.4,0,21.7c-11.3-0.6-22.5-1.5-33.8-2.2    c0-2.5,0-4.9,0-7.4C207.6,651.1,211.9,652.4,215.3,650.2 M214.1,653.3c-2.7,0.7-5.5,0.3-8.2,0.3c0,0.8,0,2.3,0,3.1    c9.8,0.8,19.7,1.3,29.6,2.1c0.1-5.3,0-10.7,0-16C228.2,646,221.2,649.8,214.1,653.3z"/>
	</g>
	<g id="_x23_4487f6ff">
		<path class="st15" d="M831.3,161.1c56.4,0,112.8,0,169.2,0c0.1,47.6-0.2,95.1,0.1,142.7c-20.9,0-41.7-0.1-62.6,0.1    c-3.8-2.9-6.3-7.1-9.2-10.8c-31.6-42.4-63.3-84.8-94.9-127.1C832.8,164.3,831.2,163.1,831.3,161.1 M834.6,163.4    c34.6,45.9,68.7,92.3,103.4,138.2c20.1,0.2,40.2,0,60.3,0.1c0-46.1,0-92.3,0-138.4C943.7,163.3,889.2,163,834.6,163.4z"/>
		<path class="st15" d="M1133.6,282.6c70.1,0,140.2,0,210.3,0c-0.1,43.6,0.2,87.3-0.1,130.9c-25.7,7.9-50.5,20.2-70.6,38.3    c-8.3,7.2-15.5,15.5-23.5,23.1c-8.3-2.5-16.5-5.7-23.3-11.2c-7.4-5.6-13.5-12.8-18.8-20.4c-9.1-11.4-23.7-16.3-37.6-18.6    c-12-2.2-24.2-1.8-36.3-1.5C1133.6,376.3,1133.6,329.5,1133.6,282.6 M1135.7,284.7c0,45.4,0,90.9,0,136.3    c15.3-0.9,30.9-0.2,45.7,3.8c11.5,3.2,22.7,9.2,29.5,19.3c8.9,12.7,21.4,23.8,36.7,27.6c1.5,0.9,2.7-0.6,3.7-1.6    c8.4-8.5,16.5-17.3,25.9-24.8c18.8-15.7,41.4-26.1,64.5-33.8c-0.1-42.3,0-84.6,0-126.9C1273.1,284.7,1204.4,284.7,1135.7,284.7z"/>
	</g>
	<g id="_x23_4a8bf7ff">
		<path class="st16" d="M1356.5,282.6c3.4-0.6,6.7,0.6,9.9,1.6c10.2,3.6,18.8,10.5,26.1,18.3c3.5,3.6,6.1,7.9,10,11.1    c9.7,8.7,22.7,12.8,35.4,14.5c8.1,1,16.4,1.3,24.5,0.2c3.5,1.7,3.9,6.1,6.8,8.4c4.2,4.3,10.5,4.8,16.1,3.9c0,22.3,0,44.7,0,67    c-43-0.2-86,1.2-128.9,2.8C1356.5,367.9,1356.5,325.2,1356.5,282.6 M1358.7,284.5c0,41.3-0.1,82.5,0,123.8    c41.5-2,83.1-2.8,124.6-2.9c0-20.8,0.1-41.6-0.1-62.4c-7.3,1.4-15.3-2.3-18.7-8.9c-0.9-2.7-4-3.7-6.5-3.1    c-10.7,0.7-21.4-0.3-31.8-2.9c-12.1-3.1-23.7-9.4-31.3-19.5C1385.6,297.3,1373.5,286.9,1358.7,284.5z"/>
	</g>
	<g id="_x23_4689f7ff">
		<path class="st17" d="M944.2,312.2c18.8,0,37.6,0,56.4,0c-0.3,20.5-0.1,40.9-0.1,61.4c-0.1,4.9,0.3,9.8-0.5,14.7    c-18-23.8-35.7-47.8-53.6-71.7C945.2,315.3,944.8,313.7,944.2,312.2 M947.5,314.3c16.7,22.7,33.7,45.3,50.6,67.9    c0.4-22.6,0.1-45.3,0.2-67.9C981.4,314.3,964.5,314.3,947.5,314.3z"/>
		<path class="st17" d="M380.2,512.9c1.1-0.7,1.9-1.8,3.2-2.1c11.7,2.4,23.4,5.2,35.1,7.6c-0.2,1.8-1.4,3.2-1.7,5    c-2.9,12.5-6.1,24.8-9.7,37.1c-3.6,12.4-3.3,25.7,0,38.1l-0.1,1c-40.6,0-81.3,0-121.9,0c0-15.2,0-30.3,0-45.4    c13.3-0.1,26.7,0.3,40-0.2C343.5,540.3,361.8,526.6,380.2,512.9 M383.6,513.1c-16.4,12.2-32.7,24.4-49.1,36.6    c-2.8,2.1-5.7,4.1-8.3,6.6c-13,0.1-26,0-39,0c-0.1,13.7,0,27.5,0,41.2c39.1,0,78.2,0,117.3,0c-3-12.5-3.1-25.8,0.6-38.2    c3.5-11.6,6.4-23.3,9.3-35.1c0.1-1.4,1.3-3.3,0.2-4.4C404.3,517.7,393.9,515.3,383.6,513.1z"/>
		<path class="st17" d="M1541.7,718c18.2,6.7,34.7,18.1,46.7,33.3c14.1,17.4,21.9,39.5,22.9,61.8c-23.3,0-46.5,0-69.8,0    c0-30,0-59.9,0-89.8C1541.5,721.5,1541.3,719.7,1541.7,718 M1543.6,721.2c-0.1,29.9,0,59.9,0,89.8c21.8-0.1,43.6,0.2,65.3-0.1    c-1.2-17.9-6.8-35.6-16.8-50.6C1580.5,742.6,1563.3,728.7,1543.6,721.2z"/>
	</g>
	<g id="_x23_4b8cf7ff">
		<path class="st18" d="M285.1,351.3c27.8,0,55.6,0,83.5,0c1.6,0.1,3.2-0.3,4.7,0.4c-0.3,15.4,2.3,30.8,1.6,46.1    c-15.2,0.3-30.3-2.2-45.4-3.2c-14.8-1.5-29.6-2.5-44.4-4.2C285.1,377.3,285.1,364.3,285.1,351.3 M287.2,353.4c0,11.3,0,22.7,0,34    c0.1,0.3,0.3,1,0.4,1.4c28.4,2.1,56.7,5.2,85.1,7.5c0.1-14.2-1.7-28.3-1.8-42.4c-1.5-0.6-3.1-0.3-4.6-0.4    C340,353.4,313.6,353.4,287.2,353.4z"/>
		<path class="st18" d="M614.8,359.5c21.1,4,40.3,14.7,56.9,28l0.3,0.8c-9.6,13.5-19.3,27.1-30.6,39.3c-6.7,7.2-17.7,7.7-26.6,4.8    C614.7,408.2,614.8,383.9,614.8,359.5 M616.9,362.5c0,21.3,0,42.6,0,63.8c0,1.6-0.1,3.2,0.3,4.7c7.2,1.6,15.8,1.5,21.5-4    c7.9-7.8,14.3-16.8,21-25.6c3.1-4.4,6.6-8.5,9.4-13.1C653.8,376.3,636.2,366,616.9,362.5z"/>
		<path class="st18" d="M1646.8,417.4c3-1.6,6.5-1.9,9.8-2.6c0.1,13.7,0.1,27.3,0,41c-16,1.3-32,2.9-47.9,4.3    c-12.2,0.9-24.4,2.7-36.6,2.3c-0.2-12.6,1.5-25.2,1.5-37.8c16.1,0.3,32.1-0.8,48-3.2C1630,420.3,1638.3,418.1,1646.8,417.4     M1575.8,426.7c-0.5,11.3-1.4,22.6-1.6,33.9c26.7-1.9,53.5-4.9,80.2-7c0.1-12,0-24.1,0.1-36.1c-0.5,0.1-1.6,0.2-2.1,0.3    C1627.3,423.5,1601.6,427,1575.8,426.7z"/>
		<path class="st18" d="M430.8,521c13.2,4.5,26.5,10,39.2,16c13.1,6.2,24.7,15.9,39,19.3c21.5,5,43.9,4.7,65.7,1.8    c1.7-0.1,3.4-1.2,5-0.5c6.3,8.5,12.9,16.8,19.4,25.2c1.2,1.7,3.1,3,3.3,5.2c0.1,3.9,0,7.8,0,11.7c-60.3,0-120.7-0.1-181,0.1    c-2.8-7.7-3.2-16.2-3-24.4c0.3-9.8,3.8-19.1,6.2-28.5C426.8,538.2,428.9,529.7,430.8,521 M428.1,541.7    c-2.6,11.5-7.3,22.7-7.7,34.7c-0.3,7.1,0.7,14.2,2.2,21.1c59.2,0.1,118.3,0,177.5,0c-0.2-3.4,0.5-7-0.4-10.3    c-7-9.1-14.2-18.2-21.2-27.4c-23.4,3.4-47.5,4.1-70.6-1.5c-12.8-3.1-23.6-11.2-35.1-17.4c-13-6.5-26.5-11.8-40.1-16.9    C430.6,529.6,429.8,535.8,428.1,541.7z"/>
	</g>
	<g id="_x23_4d8df7ff">
		<path class="st19" d="M384.4,351.3c35.2,0,70.3,0,105.5,0c17.2,48.4,35.2,96.6,52.4,145.1c-49.6-11.1-99-23-148.5-34.3    c-1.6-0.2-2.8-1.2-4-2c-1.6-28.2-3.3-56.3-4.9-84.5C384.1,367.4,384.5,359.4,384.4,351.3 M386.5,353.4c0,5-0.1,9.9,0.1,14.9    c2,30.5,3.4,61,5.6,91.5c1.3,0.1,2.6,0.2,3.9,0.4c35.9,8.3,71.8,16.7,107.6,25c11.7,2.5,23.3,5.8,35.1,7.9    c-10.8-30.4-22-60.7-32.9-91.1c-6.1-16.2-11.4-32.7-18-48.6C454.1,353.4,420.3,353.4,386.5,353.4z"/>
		<path class="st19" d="M850.2,366.1c37.4-0.1,74.9,0,112.3,0c1.5-0.2,2.1,1.3,2.8,2.2c9.3,12.6,18.6,25.2,28,37.9l-0.4,0.8    c-15.5,9.2-31.4,18.1-48.5,24.4c-7.7,3-16,3.6-24.2,4.2c-14.1,0.9-28.3,1.6-42.5,1.7c-8.6-22.4-17.6-44.6-26.3-67    C851.1,368.9,849.8,367.6,850.2,366.1 M853.2,368.2c8.4,22.3,17.5,44.3,26,66.5c10.9,0.6,21.9-0.5,32.9-0.9    c10.8-0.7,21.9-0.8,32.1-4.7c16-6,31.1-14.3,45.7-22.9c0-1.4-1.3-2.4-1.9-3.5c-8.6-11.4-16.9-23.1-25.6-34.4    C926,368.1,889.6,368.3,853.2,368.2z"/>
	</g>
	<g id="_x23_5592f7ff">
		<path class="st20" d="M512.8,352.4c30.1-0.3,60.3,1.2,90.3,4.3c-0.1,21.8-0.7,43.7-1.2,65.5c-29.6-22.9-59.1-46-88.8-68.9    L512.8,352.4 M519.3,354.6c3.7,3.8,8.3,6.6,12.4,10c22.7,17.7,45.6,35.3,68.2,53.1c0.5-19.7,0.8-39.3,1.2-59    C573.9,355.8,546.6,354.7,519.3,354.6z"/>
		<path class="st20" d="M441.6,485.4c13.7,2.8,27.3,6.4,41,9.4c21.4,5.1,42.9,9.9,64.3,15.2c8.3,11.7,16.7,23.2,25,34.8l-0.1,0.9    c-16.6,1.3-33.5,2.9-50.1,0c-8.6-1.4-17.1-3.8-24.8-7.9c-5.5-2.8-10-7.3-15.7-9.8c-15-7.3-30.6-13.1-46.4-18.4    C436.8,501.4,439.6,493.5,441.6,485.4 M443.2,488.3c-1.9,6.5-3.8,13.1-5.6,19.7c15.6,5.7,31.3,11.2,46.1,18.8    c5.8,2.8,10.4,7.5,16.3,10.1c21.2,9.8,45.4,9.1,68.2,6.7c-7.5-10.4-15-20.9-22.5-31.3c-4.3-1.7-8.9-2.2-13.4-3.4    c-29.4-6.9-58.7-13.8-88.1-20.6L443.2,488.3z"/>
		<path class="st20" d="M1851.4,904c2.1-0.3,4,0.7,6.1,1.1c45.5,11.4,91,22.9,136.5,34.4c1.1,0.2,2.1,0.7,3,1.4    c0,11.8,0,23.6,0,35.4c-19.4-4.2-38.8-9.6-58.2-14.4c-31.6-8.1-63.4-15.6-94.9-24.2C1846.3,926.5,1849.3,915.3,1851.4,904     M1853.3,906.8c-1.9,8.3-3.9,16.7-5.9,25c-0.2,1.5-1.2,3.1-0.5,4.7c49.3,12.3,98.6,24.8,147.9,37.2c0-10.6,0.1-21.1,0-31.7    c-43.6-11.1-87.3-22-130.9-33C1860.3,908.4,1856.8,906.6,1853.3,906.8z"/>
	</g>
	<g id="_x23_4f8ff7ff">
		<path class="st21" d="M508.1,364.1c31.3,24.3,62.4,48.8,93.8,73c0.4,8.4,0.1,16.8,0.2,25.1c-19.3,0-38.6,0.1-58-0.1    c-9.8-26.8-19.8-53.5-29.7-80.3C512.4,376,509.7,370.2,508.1,364.1 M513,371.1c0.8,3.4,2.3,6.5,3.4,9.8    c9.9,26.4,19.5,52.9,29.5,79.3c18,0,36,0,54,0c-0.2-7.3,0.5-14.7-0.3-21.9c-16.8-13-33.6-26.2-50.4-39.2    C537.1,389.8,525.3,380,513,371.1z"/>
		<path class="st21" d="M1356.6,500.4c30.3-23.5,60.5-47.2,90.8-70.7c-11.1,31.8-23.3,63.2-34.8,94.9c-18.6,0-37.3,0-55.9,0    C1356.6,516.5,1356.5,508.5,1356.6,500.4 M1408.1,463.1c-16.5,12.8-32.9,25.7-49.4,38.5c-0.2,7,0,14-0.1,20.9    c17.5-0.1,35,0.3,52.4-0.2c10.1-28.6,21.3-56.9,31.3-85.5C1430.7,445,1419.6,454.4,1408.1,463.1z"/>
	</g>
	<g id="_x23_4287f6ff">
		<path class="st22" d="M657.9,430.3c10-9.9,17.4-22.1,24.4-34.2c12,12.6,24.6,24.7,38.7,34.8c12.7,9.2,28.1,14.7,43.8,15.5    c0,51.1,0,102.1,0,153.2c-35.6,0-71.2,0-106.7,0c0-45.8,0-91.6,0-137.4c-14.8,0-29.6,0-44.4,0c0-5.3,0-10.6,0-15.9    c7.4-0.5,15.4,1.5,22.3-2C644.1,441.2,651.6,436.5,657.9,430.3 M682.5,400.2c-6.9,11.7-14.3,23.3-24.2,32.7    c-6.5,6.1-14.3,10.6-22.4,14.1c-6.5,2.2-13.3,1.4-20.1,1.5c0,3.9,0,7.7,0,11.6c14.8,0,29.6,0,44.4,0c0,45.8,0,91.6,0,137.4    c34.2,0,68.3,0,102.5,0c0-49.7,0-99.4,0-149.2c-14.7-1-29.1-6.1-41.3-14.5c-13.9-9.9-26.7-21.4-38.3-33.9L682.5,400.2z"/>
		<path class="st22" d="M1567.9,533.1c29.6,0,59.2,0,88.8,0c0,9.9,0,19.8,0,29.7c-29.6,0.2-59.2,0.1-88.8,0.1    C1567.9,552.9,1567.9,543,1567.9,533.1 M1570,535.2c0,8.5-0.1,17,0,25.5c28.2,0,56.3,0,84.5,0c0-8.5,0-17,0-25.5    C1626.3,535.2,1598.2,535.2,1570,535.2z"/>
		<path class="st22" d="M1443.2,793.8c23.2,7,46.4,14.4,69.6,21.6c5,1.7,10.1,2.9,15,4.9c-0.1,23.3,0,46.6,0,69.9    c-28.2,0-56.4,0-84.5,0C1443.2,858.1,1443.2,825.9,1443.2,793.8 M1445.3,796.9c0,30.4,0,60.8,0,91.2c26.8,0,53.5,0,80.3,0    c0-22.2,0.1-44.3,0-66.5c-22.2-6.9-44.4-13.9-66.6-20.8C1454.4,799.6,1449.9,797.6,1445.3,796.9z"/>
	</g>
	<g id="_x23_488af7ff">
		<path class="st23" d="M173.1,406.9c4.3,6.1,8.1,12.5,12.6,18.4c13.9,18.4,30.7,35,50.7,46.6c0.3,54.1,0.1,108.2,0.1,162.3    c-7.3,3-14.4,6.2-21.7,9.2c-1.4,0.7-3.1,0.5-4.6,0.5c-12.9-0.7-25.8-4.1-37-10.7V631c9.8,5.4,20.5,9.2,31.6,10.4    c3.5,0.2,7.3,1.4,10.6-0.4c6.2-3,13-5.2,19-8.5c0.2-51.8,0-103.6,0.1-155.4c0-1.3-0.1-2.6-0.3-3.9c-25.3-15-45.3-37.6-61-62.2    V406.9z"/>
	</g>
	<g id="_x23_5291f7ff">
		<path class="st24" d="M947.3,443.9c19.3-6.4,38.2-14.7,54.2-27.4c21.1,23,41.6,46.7,62.5,69.9c2.2,2.9,5.5,5.3,7.2,8.6    c0,10.5,0.2,21.1-0.1,31.6c-41.1-26.4-82.3-52.8-123.5-79.2C946.1,446.9,945.3,444.2,947.3,443.9 M987.1,429.1    c-11.7,7-24.5,12-37.4,16.4l0.2,0.7c39.7,25.5,79.4,51,119.2,76.4c0-9.1,0.2-18.2-0.1-27.3c-22.7-25.1-45-50.6-67.6-75.7    C996.6,422.7,992,426.2,987.1,429.1z"/>
		<path class="st24" d="M390.7,473.7c13.1,2.6,26.1,6,39.2,8.8c-1.6,8.2-4.6,16.1-6.6,24.2c-10.6-1.6-21-4.4-31.6-6.5    C391.5,491.3,390.8,482.5,390.7,473.7 M392.9,476.8c0.5,7.2,0.7,14.3,1.1,21.5c9.3,2,18.5,4.1,27.8,5.9c1.4-6.8,4.3-13.3,5.2-20    c-11.1-2.6-22.2-5.1-33.3-7.6L392.9,476.8z"/>
	</g>
	<g id="_x23_5693f7ff">
		<path class="st25" d="M1465.9,417.6c18.1-1.7,36.4-1.1,54.3,2.2c14.3,2.3,28.7,3.5,43.1,4.5c0.5,9.8-0.8,19.6-1.1,29.4    c-1.4,21.9-2.6,43.7-3.9,65.6c-0.3,1.5-1.3,3.3-3.1,3.2c-46.7,10.6-93.4,21.8-140.1,32.4c6.8-20.4,14.7-40.6,21.8-60.9    c8.8-24.3,17.6-48.5,26.4-72.8C1464,419.9,1464,417.5,1465.9,417.6 M1468,419.7c-2.5,1.1-2.8,4.1-4,6.3    c-15.1,41.7-30.4,83.3-45.3,125.1l0.3,0.8c45.7-10.7,91.3-21.4,137.1-31.8c1.7-29.5,3.5-58.9,5.2-88.4c-0.1-1.8,0.1-3.7-0.9-5.3    c-15.1-1.1-30.2-2.5-45.2-5.1C1499.7,418.8,1483.7,418.2,1468,419.7z"/>
	</g>
	<g id="_x23_5492f7ff">
		<path class="st26" d="M1278.7,461.3c1.9,1.1,2.3,3.7,3.6,5.5c7.2,12,15.2,24.2,26.7,32.6c5.7,4.1,12.1,7.4,18.9,9.3    c5.3,0.2,10.6,0,16,0.1c0,5,0,10.1,0,15.1c-14,0.2-27.9,0-41.9,0.1c0,43.2,0.1,86.4-0.1,129.6c-33.7,0-67.4,0.1-101,0    c-0.1-38.4,0-76.8-0.1-115.3c0.2-9.8-0.4-19.7,0.2-29.5c15.9-0.9,31.4-6.8,44-16.5C1257.1,482.9,1268.6,472.7,1278.7,461.3     M1241,497.9c-11.2,7.6-24.3,11.6-37.6,13.3c-0.5,9.7-0.1,19.6-0.2,29.4c0,37,0,73.9,0,110.9c32.2,0.1,64.4,0,96.6,0    c0.2-43.2-0.1-86.4,0.1-129.6c13.9-0.2,27.9,0,41.9-0.1c0-3.6,0-7.2,0-10.8c-7.7-0.4-16.3,1.5-23.1-3.3    c-13.8-6.1-24.2-17.7-32.3-30.1c-2.9-3.9-4.9-8.6-8-12.3C1266.9,477.1,1254.7,488.5,1241,497.9z"/>
		<path class="st26" d="M1531,576.6c10.9-2.1,21.8-4.8,32.7-7c3.5,1.5,6.3,4.5,9.5,6.5c15.2,11.2,30.4,22.5,45.5,33.7    c12.5,0.7,25.2,0.1,37.8,0.3c0,14.2,0,28.4,0,42.6c-28.2,0.3-56.4,0-84.6,0.1c-10.2-0.1-20.5,0.4-30.6-0.6    c3.1-12,3.5-24.9-0.2-36.9C1537.5,602.6,1534.1,589.3,1531,576.6 M1534.4,578c-0.5,2.4,0.8,4.6,1.1,7c2.5,9.8,4.8,19.8,8,29.4    c3.3,11.8,3.3,24.3,0.8,36.2c36.7,0,73.4,0.1,110.2,0c0-12.8,0-25.5,0-38.3c-12,0-23.9,0-35.9,0c-18.6-13-36.4-27.2-55-40.2    C1553.8,573.7,1544.2,576.5,1534.4,578z"/>
		<path class="st26" d="M1861.2,863.4c5.1,0.3,10.1,2.4,15.2,3.4c38.6,9.7,77.1,19.4,115.7,29.1c1.6,0.5,3.4,0.6,4.8,1.7    c-0.1,10.2,0,20.4,0,30.7c-7.5-0.8-14.7-3.5-22.1-5.1c-38.6-9.7-77.2-19.4-115.8-29.2c-1.6-0.5-3.3-0.2-4.9-0.7    C1856.5,883.4,1858.9,873.4,1861.2,863.4 M1862.9,865.9c-1.6,8.5-4.6,16.9-5.5,25.4c45.7,11.6,91.5,22.9,137.2,34.7    c0.3-9,0.1-18.1,0.1-27.1C1950.8,888,1906.9,876.5,1862.9,865.9z"/>
	</g>
	<g id="_x23_5c97f7ff">
		<path class="st27" d="M1571.3,474c25.3-1.6,50.5-4.6,75.8-6.5c3.1,0.1,6.3,0,9.5-0.1c0.1,17.6,0.2,35.1-0.1,52.7    c-29-0.1-58.1,0.1-87.1-0.1c-0.8-4.4-0.2-8.9-0.1-13.4C1570,495.7,1569.7,484.8,1571.3,474 M1573.3,476.4    c-1.3,10.3-1.2,20.9-2.1,31.3c0,3.4-0.6,6.8,0.1,10.1c27.6-0.2,55.3-0.2,82.9,0c0.5-16.1,0-32.3,0.3-48.4    C1627.4,471.2,1600.4,474.2,1573.3,476.4z"/>
	</g>
	<g id="_x23_4e8ef7ff">
		<path class="st28" d="M613.8,475c10.8-0.1,21.7-0.1,32.5,0c0,41.5-0.1,83,0,124.6c-10.8,0.1-21.7,0.1-32.5,0    C613.9,558,613.9,516.5,613.8,475 M616,477.2c0.1,40.1,0.1,80.2,0,120.3c9.4,0.1,18.7,0.2,28.1-0.1c-0.1-40.1-0.1-80.1,0-120.2    C634.8,477,625.4,477,616,477.2z"/>
	</g>
	<g id="_x23_4286f6ff">
		<path class="st29" d="M285.1,507.7c31,0.1,62-0.2,93.1,0.2c-17.5,13.4-35.2,26.7-52.9,39.9c-13.4,0.2-26.8,0-40.1,0.1    C285.1,534.5,285.1,521.1,285.1,507.7 M287.2,509.8c0,12,0,23.9,0,35.9c12.3,0,24.7,0.1,37,0c16-11.6,31.7-23.8,47.6-35.7    C343.6,509.5,315.4,509.9,287.2,509.8z"/>
		<path class="st29" d="M1465.4,756c14.4,0,28.9,0,43.3,0c0,14.8,0,29.7,0,44.5c-14.5-4.5-29-8.8-43.4-13.7    C1465.4,776.6,1465.4,766.3,1465.4,756 M1467.5,758.1c0,9.1-0.1,18.2,0.1,27.4c13,3.9,26,8.2,39,12.1c0-13.1,0-26.3,0-39.4    C1493.6,758.1,1480.5,758.1,1467.5,758.1z"/>
		<path class="st29" d="M1416.9,967.4c21.5-0.2,42.9,0,64.4-0.1c0,10.2,0,20.4,0,30.6h-2.1c0-9.5,0-19,0-28.5c-20.1,0-40.2,0-60.3,0    c5.1,8.6,8.1,18.5,8.6,28.5h-2.1c-0.6-9.2-3-18.3-7.7-26.2C1416.9,970.5,1415.5,968.9,1416.9,967.4z"/>
	</g>
	<g id="_x23_5392f7ff">
		<path class="st30" d="M1946.3,510.7c9,3.8,18.3,8.2,28.3,7.6c24,0,47.9,0,71.9,0v2.1c-26.1,0-52.2,0-78.2,0    c-7.3-1-14.1-3.9-20.9-6.6c-26.8,111.6-53.4,223.4-80.3,335c50.5,12.6,101.1,24.5,151.6,37c6.7-26.9,12.9-54,19.5-80.9    c2.8-11.1,5-22.4,8.3-33.4v9.5c-3,10.4-5.1,21.1-7.8,31.6c-5.9,25.2-12.2,50.3-18,75.5c-4.2,0-8.3-1.8-12.4-2.6    c-47.8-11.5-95.6-23.3-143.5-34.7c0.4-5.6,2.5-10.9,3.5-16.4c25.2-105.4,50.4-210.7,75.6-316C1944.6,515.7,1945,513,1946.3,510.7z    "/>
	</g>
	<g id="_x23_5593f7ff">
		<path class="st31" d="M1519.9,543.4c12.2-3.3,24.7-5.9,37.2-8.6c0.1,8.2-1,16.4-0.9,24.6c-7.6,2.2-15.5,3.4-23.2,5.2    c-2.3,0.2-4.6,1.5-7,1C1524.3,558.2,1521.7,550.9,1519.9,543.4 M1522.6,544.9c1.9,6.2,3.5,12.5,5.5,18.7c8.6-2,17.2-3.8,25.8-5.5    c0.5-6.8,0.5-13.5,1-20.3C1544,539.7,1533.3,542.5,1522.6,544.9z"/>
	</g>
	<g id="_x23_478af7ff">
		<path class="st32" d="M1356.5,536.2c17,0,34.1,0,51.1,0c-2.7,7.4-5.6,14.9-8.8,22.1c-14.1,3.2-28.2,6.7-42.3,9.8    C1356.5,557.5,1356.6,546.9,1356.5,536.2 M1358.7,538.3c0,9,0,17.9,0,26.9c13-2.6,26-5.8,38.9-9c2.3-6,4.8-11.9,7-17.9    C1389.2,538.3,1373.9,538.3,1358.7,538.3z"/>
		<path class="st32" d="M566.4,778.3c11.8-0.3,23.8,0,35.7-0.1c0,15.1,0,30.3,0,45.4c-15.5,0.4-31,0.3-46.5,0.1    C561.9,809.4,566.1,794,566.4,778.3 M568.6,780.4c-0.8,14-4.2,27.9-9.7,40.9c0.5,0.1,1.4,0.3,1.9,0.4c13.1,0,26.2,0.1,39.2,0    c0-13.8,0-27.5,0-41.3C589.5,780.4,579,780.2,568.6,780.4z"/>
		<path class="st32" d="M548.3,837.3c3.8-0.7,7.8-0.3,11.7-0.3c2.2,1,3.4,3.1,5.2,4.5c6.5,5.5,13,11.2,20.4,15.3    c4.3,2.6,9.6,1.4,14.4,1.7c0-1.7,0-3.4,0-5.1c-7,0.6-14.4-0.8-19.7-5.7c-3.5-3.3-8.1-6-10-10.6c10.6,0,21.3-0.6,31.9,0.3    c0,32,0,64.1,0,96.1c-50.7,0-101.4,0-152.2,0c-0.3-12.3,0-24.6-0.1-36.9C489.8,894.6,527.7,871.6,548.3,837.3 M549.5,839.6    c-10.6,17.1-25.5,31.6-42.8,41.9c-16.6,10-35.5,15.7-54.7,17.3c0,10.9,0,21.8,0,32.7c49.3,0.1,98.7,0,148,0c0-23.6,0-47.1,0-70.7    c-5.1-0.2-10.5,0.9-15.1-1.8c-9.4-4.9-17.2-12.3-25.1-19.3C556.5,839,552.8,838.9,549.5,839.6 M574.6,839.3    c1.7,2.8,4.8,4.5,7.2,6.8c4.8,4.6,11.8,5.7,18.2,5.1c0-4,0-8,0-12C591.5,839.2,583,839.1,574.6,839.3z"/>
	</g>
	<g id="_x23_5090f7ff">
		<path class="st33" d="M1569.3,566.2c11.5,0.9,23.1,0.1,34.6,0.4c17.6,0,35.2-0.1,52.8,0c-0.1,12.6,0.3,25.3-0.2,37.9    c-12.9-0.7-26,0.9-38.7-0.9c-15.3-11.4-30.6-23-46-34.4C1570.8,568.4,1568.8,567.9,1569.3,566.2 M1575.4,569.5    c14.7,10.3,28.7,21.5,43.2,32c1.5,1.1,3.5,0.6,5.2,0.7c10.1,0.1,20.2-0.2,30.4,0.1c0.7-11.1,0.1-22.3,0.3-33.5    c-25-0.1-50,0-75-0.1C1578.1,568.9,1576.6,568.6,1575.4,569.5z"/>
	</g>
	<g id="_x23_5190f7ff">
		<path class="st34" d="M173.1,643.7c8.8,2.2,17.6,4.6,26.4,6.7c0,18.7-0.8,37.4-1,56.2c-8.5-1.8-16.9-4.1-25.3-6v-1.9    c7.8,0.8,15.4,3.7,23.2,5c0.2-17.1,0.7-34.3,1-51.4c-8-2.3-16.2-4.2-24.3-6.4V643.7z"/>
		<path class="st34" d="M1892.3,964.1c0.1-2.4,2.9-1,4.3-0.8c33.4,8.4,66.8,17,100.3,25.2c0,3.2,0,6.3,0,9.5h-2.1c0-2.5,0-5-0.1-7.5    c-25.2-6.6-50.5-12.8-75.7-19.2c-8.2-1.9-16.3-4.4-24.7-5.9c-2.3,10.9-4.3,21.8-6.4,32.7h-2.2    C1887.8,986.7,1890,975.4,1892.3,964.1z"/>
	</g>
	<g id="_x23_5794f7ff">
		<path class="st35" d="M431.4,661.7c23-2.6,46.8,2.7,66.7,14.6c31.2,18.4,52,53.1,53.5,89.3c2.4,38.1-16.6,76.6-48.4,97.7    c-21.2,14.4-47.8,20.9-73.3,17.6c-19.3-2.3-37.9-10-53.2-22c-29.1-22.3-45.5-59.9-42.2-96.5c2.6-37.6,26-72.8,59.7-89.7    C405.8,666.8,418.5,663,431.4,661.7 M432.5,663.9c-13.9,1.3-27.4,5.5-39.7,12.1c-31.7,16.9-53.6,50.6-56.1,86.4    c-1.8,21.6,2.9,43.7,13.7,62.6c16.3,29.3,47.2,50.2,80.6,53.7c24,2.9,48.9-3.1,69.1-16.2c31.6-20,51.1-57.5,49.3-94.9    c-0.7-35.9-21-70.6-51.8-89C478.3,666.9,455.1,661.5,432.5,663.9z"/>
	</g>
	<g id="_x23_498bf7ff">
		<path class="st36" d="M203.7,663c11.3,0.6,22.5,1.5,33.8,2.2c0,16.3,0,32.5,0,48.8c-11.2-2.2-22.4-4.8-33.6-6.9    C203.5,692.4,203.8,677.7,203.7,663 M205.9,665.2c-0.1,13.3-0.1,26.6,0,40c9.9,1.9,19.7,4.4,29.6,5.9c0-14.6,0-29.2,0-43.8    C225.6,666.4,215.7,666.1,205.9,665.2z"/>
	</g>
	<g id="_x23_3c83f6ff">
		<path class="st37" d="M1496,666.2c10.6,0,21.1,0,31.7,0c-0.1,46.8,0.2,93.6-0.1,140.3c-4.1-1.5-8.4-2.6-12.5-4    c-0.1-18,0-35.9,0-53.9c-6.3,0-12.7,0-19,0C1496,721.1,1496,693.7,1496,666.2 M1498.2,668.3c0,26.1,0,52.1,0,78.2    c6.3,0,12.6,0,19,0c0.1,18.2-0.2,36.4,0.2,54.6c2.8,0.7,5.5,1.6,8.2,2.5c0.1-45.1,0-90.2,0.1-135.3    C1516.5,668.3,1507.3,668.3,1498.2,668.3z"/>
		<path class="st37" d="M1668.3,983.2c50.8,0,101.7,0,152.5,0c-1,5-2.2,9.9-3.3,14.8h-1.3l-0.8-0.8c1-4,1.9-7.9,2.8-11.9    c-49.3-0.1-98.5,0-147.8,0c0,4.2,0,8.5,0,12.7h-2.1C1668.3,993.1,1668.2,988.1,1668.3,983.2z"/>
	</g>
	<g id="_x23_7cabf9ff">
		<path class="st38" d="M1320.7,722.3c1-0.8,2.9,0.6,2.8,1.8C1322.3,725.3,1319.4,724.1,1320.7,722.3z"/>
	</g>
	<g id="_x23_4689f6ff">
		<path class="st39" d="M1422.1,756c12.3,0,24.7,0,37,0c0,9.6,0,19.3,0,28.9c-12.3-3.4-24.4-7.7-36.8-11.2    C1421.8,767.8,1422.2,761.9,1422.1,756 M1424.2,758.1c0,4.6-0.1,9.2,0,13.7c10.9,3.3,21.7,7,32.7,10.1c0-7.9,0-15.9,0-23.8    C1446,758.1,1435.1,758.1,1424.2,758.1z"/>
	</g>
	<g id="_x23_4286f7ff">
		<path class="st40" d="M1422,787.3c6,1.2,11.7,3.7,17.7,5.1c0.9,8.9,0.1,18,0.4,26.9c0,23.6,0,47.2,0,70.8c-6,0-12,0-18.1,0    C1422,855.9,1422,821.6,1422,787.3 M1424.5,790c-0.6,1.6-0.3,3.4-0.3,5.1c0,31,0,62,0,93c4.6,0,9.2,0,13.8,0    c0-31.3,0.1-62.6-0.1-93.9C1433.4,792.9,1428.9,791.6,1424.5,790z"/>
	</g>
	<g id="_x23_4387f7ff">
		<path class="st41" d="M612.6,902.8c40.9,0,81.9,0,122.8,0c0.1,10.2,0.1,20.5,0,30.8c-40.9,0-81.9,0-122.8,0    C612.6,923.3,612.6,913.1,612.6,902.8 M614.8,905c0,8.8,0,17.6,0,26.4c39.5,0,79.1,0,118.6,0c0.1-8.8,0.1-17.6,0-26.4    C693.8,905,654.3,905,614.8,905z"/>
	</g>
	<g id="_x23_5895f7ff">
		<path class="st42" d="M1840.3,952.6c0.1-1.6,1.5-3.3,3.3-2.6c12.8,3.3,25.9,6.2,38.6,9.9c-3.2,12.6-5.4,25.4-8.1,38.1h-2.1    c2.1-12.3,4.7-24.5,7.5-36.7c-11.6-2.8-23.1-5.8-34.7-8.7c-1.6-0.6-2.6,0.8-2.7,2.1c-3.3,14.4-6.8,28.8-10.1,43.2h-2.3    C1833.1,982.8,1836.7,967.7,1840.3,952.6z"/>
	</g>
	<g id="_x23_4487f7ff">
		<path class="st43" d="M366.5,982.2c26.1,0,52.3,0,78.4,0c0.2,5.3,0,10.5,0.1,15.8h-2.2c0.1-4.6,0.1-9.1,0-13.7    c-24.7,0-49.4,0-74.2,0c-0.1,4.6,0,9.1,0,13.7h-2.1C366.5,992.7,366.4,987.4,366.5,982.2z"/>
	</g>
</g>
</svg>